<?xml version="1.0" standalone="no"?>
<!DOCTYPE svg PUBLIC "-//W3C//DTD SVG 20010904//EN"
 "http://www.w3.org/TR/2001/REC-SVG-20010904/DTD/svg10.dtd">
<svg version="1.0" xmlns="http://www.w3.org/2000/svg"
 width="1163.000000pt" height="620.000000pt" viewBox="0 0 1163.000000 620.000000"
 preserveAspectRatio="xMidYMid meet">

<g transform="translate(0.000000,620.000000) scale(0.100000,-0.100000)"
fill="#000000" stroke="none">
<path d="M4455 6186 c-49 -19 -82 -55 -91 -101 -11 -58 3 -96 56 -152 l49 -53
99 0 99 0 22 -74 c11 -41 24 -82 27 -90 6 -15 -120 -16 -1320 -16 l-1326 0
-10 26 c-20 50 -15 54 60 54 51 0 70 4 70 13 0 29 -33 125 -62 179 -51 96
-110 128 -240 128 -91 0 -133 -15 -171 -59 -22 -27 -27 -42 -27 -89 0 -54 3
-60 51 -114 l51 -58 93 0 c52 0 96 -3 98 -7 3 -5 8 -23 12 -40 l7 -33 -486 0
-486 0 0 -25 0 -25 408 -2 407 -3 3 -47 3 -48 -270 0 c-234 0 -271 -2 -271
-15 0 -13 524 -15 4652 -15 3722 0 4650 3 4640 13 -10 9 -116 13 -447 15
l-435 3 0 49 0 50 408 2 c399 3 407 3 407 23 0 20 -8 20 -486 23 l-487 2 10
40 10 40 97 1 96 1 49 54 c58 63 70 117 41 178 -29 61 -66 79 -164 84 -106 5
-161 -9 -210 -53 -44 -40 -98 -150 -107 -218 l-7 -47 73 0 c62 0 71 -2 66 -16
-3 -9 -9 -27 -12 -40 l-6 -24 -1324 0 c-728 0 -1324 4 -1324 8 0 4 11 44 24
88 l23 79 101 3 101 3 50 55 c49 54 51 58 51 114 0 52 -4 64 -31 95 -39 44
-91 58 -194 53 -114 -6 -172 -42 -220 -139 -19 -37 -55 -150 -55 -173 0 -3 29
-6 65 -6 46 0 65 -4 64 -12 0 -7 -10 -47 -23 -88 l-22 -75 -1000 -3 -1001 -2
-21 74 c-12 41 -25 82 -28 90 -5 14 4 16 61 16 l68 0 -7 40 c-17 110 -81 218
-150 254 -52 26 -193 33 -251 12z m266 -160 c28 -13 42 -29 58 -68 17 -40 19
-53 9 -60 -7 -4 -76 -8 -153 -8 l-141 0 -48 49 c-55 56 -55 73 -4 97 47 21
230 15 279 -10z m2399 6 c50 -24 49 -46 -3 -97 l-44 -45 -147 0 c-167 0 -170
1 -138 73 30 68 71 84 212 86 63 1 94 -4 120 -17z m-5070 -108 c38 -22 60 -58
63 -102 l2 -27 -149 -3 -149 -3 -44 47 c-24 25 -43 53 -41 62 2 9 19 25 38 35
51 26 230 21 280 -9z m7739 15 c17 -6 36 -20 42 -31 9 -17 4 -27 -37 -69 l-48
-49 -141 0 c-77 0 -146 4 -153 9 -10 6 -9 17 5 54 20 51 41 70 94 85 47 14
199 14 238 1z m-7758 -331 c6 -24 13 -46 16 -50 2 -5 -28 -8 -66 -8 l-71 0 0
50 0 50 55 0 54 0 12 -42z m1379 -8 l0 -50 -650 0 -649 0 -10 38 c-6 20 -11
43 -11 50 0 9 139 12 660 12 l660 0 0 -50z m1330 25 c5 -14 13 -37 16 -50 l6
-25 -646 0 -646 0 0 50 0 50 630 0 630 0 10 -25z m230 -25 l0 -50 -70 0 c-76
0 -77 1 -96 75 l-6 25 86 0 86 0 0 -50z m1560 0 l0 -50 -750 0 -750 0 0 50 0
50 750 0 750 0 0 -50z m230 38 c0 -7 -5 -30 -11 -50 l-10 -38 -74 0 -75 0 0
50 0 50 85 0 c61 0 85 -3 85 -12z m1340 -38 l0 -50 -650 0 -649 0 14 48 c8 26
15 48 15 50 0 1 286 2 635 2 l635 0 0 -50z m1376 28 c-4 -13 -9 -35 -12 -50
l-6 -28 -649 0 -649 0 0 50 0 50 661 0 661 0 -6 -22z m184 -28 l0 -50 -71 0
c-71 0 -71 0 -65 25 18 72 22 75 81 75 l55 0 0 -50z"/>
<path d="M3700 5360 c0 -64 -3 -68 -34 -45 -73 55 -162 -41 -141 -151 13 -73
94 -109 153 -68 20 14 22 14 22 0 0 -11 10 -16 30 -16 l30 0 0 170 0 170 -30
0 -30 0 0 -60z m-24 -101 c22 -24 25 -89 5 -113 -16 -19 -62 -21 -79 -4 -7 7
-12 33 -12 59 0 38 5 51 22 63 30 21 41 20 64 -5z"/>
<path d="M2985 5391 c-56 -26 -79 -70 -79 -151 0 -109 41 -160 126 -160 35 0
54 6 68 20 l20 20 0 -20 c0 -16 7 -20 30 -20 l30 0 0 90 0 90 -70 0 c-68 0
-70 -1 -70 -25 0 -22 4 -25 40 -25 33 0 40 -3 40 -20 0 -52 -76 -78 -121 -41
-21 17 -24 28 -24 91 0 63 3 74 24 91 31 25 89 25 116 -1 22 -20 22 -20 45 -2
l24 19 -27 25 c-44 41 -109 48 -172 19z"/>
<path d="M3830 5240 l0 -160 35 0 35 0 0 75 0 75 70 0 70 0 0 -75 0 -75 35 0
35 0 0 160 0 160 -35 0 -35 0 0 -60 0 -60 -70 0 -70 0 0 60 0 60 -35 0 -35 0
0 -160z"/>
<path d="M3292 5311 c-37 -24 -52 -55 -52 -112 0 -79 39 -118 116 -119 63 0
99 25 115 81 34 113 -82 210 -179 150z m96 -47 c16 -11 22 -25 22 -55 0 -56
-15 -79 -50 -79 -55 0 -82 88 -40 130 24 24 38 25 68 4z"/>
<path d="M4233 5314 c-62 -31 -81 -131 -35 -193 28 -38 88 -55 137 -39 50 17
67 44 41 64 -17 12 -22 12 -36 -1 -20 -18 -71 -20 -88 -3 -7 7 -12 20 -12 30
0 16 10 18 80 18 77 0 80 1 80 24 0 93 -82 142 -167 100z m97 -53 c15 -30 14
-31 -40 -31 -34 0 -50 4 -50 13 0 38 71 52 90 18z"/>
<path d="M4537 5310 c-22 -18 -27 -19 -27 -6 0 11 -9 16 -30 16 l-30 0 0 -120
0 -120 30 0 30 0 0 68 c0 86 15 116 58 120 29 3 33 6 30 30 -4 34 -27 39 -61
12z"/>
<path d="M4674 5316 c-40 -18 -47 -29 -30 -51 12 -16 15 -16 44 -1 38 20 56
20 71 2 15 -17 -2 -31 -49 -41 -60 -12 -80 -31 -80 -74 0 -24 7 -44 18 -54 23
-21 86 -22 106 -1 15 14 17 14 32 0 8 -9 29 -16 45 -16 24 0 29 4 29 25 0 15
-6 25 -14 25 -10 0 -15 20 -18 80 -2 57 -8 84 -20 96 -22 22 -96 28 -134 10z
m92 -161 c-11 -43 -80 -44 -74 -1 2 14 15 25 38 32 38 13 45 7 36 -31z"/>
<path d="M4986 5309 c-21 -17 -26 -18 -26 -5 0 11 -9 16 -30 16 l-30 0 0 -120
0 -120 30 0 30 0 0 80 c0 67 3 83 20 100 24 24 43 25 64 4 12 -12 16 -36 16
-100 l0 -84 30 0 30 0 0 100 c0 94 -2 103 -25 125 -30 31 -73 32 -109 4z"/>
<path d="M5241 5318 c-43 -23 -65 -63 -64 -118 1 -59 23 -98 64 -113 22 -9 27
-16 23 -33 -4 -16 0 -23 18 -29 23 -8 23 -8 -4 -12 -16 -2 -28 -11 -28 -19 0
-12 -99 -14 -703 -14 -541 0 -706 -3 -715 -12 -10 -10 -17 -10 -32 0 -14 9
-102 12 -330 12 -303 0 -310 0 -310 -20 0 -20 7 -20 1190 -20 1183 0 1190 0
1190 20 0 19 -7 20 -112 20 -87 0 -109 3 -100 12 19 19 14 49 -8 55 -25 7 -21
27 6 31 24 5 64 41 64 58 0 7 -8 18 -19 23 -14 8 -23 6 -36 -9 -41 -46 -95
-14 -95 55 0 37 5 47 26 62 24 16 28 16 60 -2 33 -17 36 -17 52 -2 15 16 15
18 -5 38 -26 26 -98 35 -132 17z"/>
<path d="M5474 5316 c-41 -18 -50 -34 -31 -53 13 -13 18 -13 40 2 33 21 72 17
72 -9 0 -15 -12 -23 -50 -32 -79 -20 -110 -79 -65 -124 24 -24 91 -27 110 -5
12 14 15 14 30 0 9 -8 29 -15 43 -15 22 0 27 5 27 25 0 16 -6 25 -15 25 -12 0
-15 15 -15 79 0 74 -2 81 -26 100 -30 24 -75 26 -120 7z m75 -182 c-15 -18
-43 -18 -59 1 -18 22 -5 43 32 53 30 8 33 6 36 -15 2 -13 -2 -31 -9 -39z"/>
<path d="M8884 5321 c4 -6 3 -11 -3 -11 -6 0 -8 -6 -5 -14 3 -9 -23 -27 -80
-55 -61 -30 -98 -56 -131 -93 -54 -60 -79 -104 -69 -121 4 -7 3 -8 -1 -4 -5 4
-17 -7 -27 -25 l-18 -33 5 30 c4 24 3 26 -4 10 -11 -23 -14 -143 -4 -200 5
-30 8 -35 13 -20 4 12 9 -10 13 -55 7 -84 49 -182 112 -261 19 -24 35 -47 35
-51 0 -4 -17 -10 -37 -14 -21 -4 -47 -11 -58 -17 -27 -13 -74 -58 -87 -82 -6
-11 8 0 32 25 23 25 31 31 18 14 -22 -28 -79 -137 -106 -204 -10 -23 -11 -21
-11 19 -1 36 5 51 27 75 l27 29 -32 -22 c-30 -20 -33 -27 -33 -71 0 -67 -31
-114 -89 -134 -53 -19 -54 -19 -46 -6 3 6 -1 10 -9 10 -8 0 -17 -4 -20 -8 -3
-5 -30 -15 -60 -22 -45 -11 -58 -11 -71 0 -8 7 -18 10 -22 6 -3 -3 -13 4 -21
15 -14 20 -21 21 -86 14 -39 -4 -77 -12 -85 -18 -9 -7 -47 -12 -99 -11 -67 1
-88 5 -97 18 -7 9 -17 16 -22 16 -5 0 -43 34 -84 76 -53 55 -91 85 -137 106
-35 16 -67 26 -73 23 -5 -4 -8 -1 -7 5 4 14 -111 63 -130 55 -8 -3 -10 0 -6 7
5 7 0 9 -14 6 -14 -4 -20 -2 -16 4 5 7 -3 9 -22 4 -18 -4 -24 -3 -16 2 10 7 8
11 -10 15 -67 18 -99 -1 -60 -36 20 -18 184 -97 201 -97 23 0 9 -30 -27 -59
-33 -27 -37 -36 -37 -73 1 -24 6 -52 12 -62 6 -10 8 -27 6 -36 -4 -13 8 -26
41 -45 44 -25 51 -27 126 -20 56 5 80 4 80 -4 0 -6 7 -11 15 -11 16 0 60 -25
83 -47 7 -7 18 -13 23 -13 5 0 9 -8 9 -19 0 -10 11 -26 25 -35 14 -9 25 -22
25 -30 0 -7 18 -29 40 -49 22 -19 40 -40 40 -45 0 -8 125 -116 158 -136 12 -7
179 -17 322 -18 80 -1 274 44 312 72 l28 21 0 -34 c0 -19 8 -59 18 -90 12 -34
17 -75 15 -104 -2 -26 -4 -67 -6 -90 -1 -28 -8 -47 -21 -56 -12 -9 -17 -21
-14 -35 4 -14 -2 -27 -18 -41 -25 -22 -35 -69 -11 -54 21 13 -49 -70 -95 -112
l-43 -40 35 40 c88 100 91 105 21 42 -116 -106 -230 -242 -224 -268 4 -15 -5
-31 -38 -63 -102 -98 -149 -157 -149 -186 0 -18 -9 -35 -24 -48 -14 -10 -38
-41 -54 -69 -16 -27 -46 -71 -65 -97 -20 -26 -46 -76 -57 -112 l-20 -66 25
-72 c24 -69 60 -116 90 -116 8 0 18 -12 21 -27 7 -29 44 -104 55 -113 4 -3 9
-27 12 -55 4 -27 8 -61 11 -75 3 -14 7 -59 10 -100 2 -41 9 -76 15 -78 10 -3
8 -10 -18 -61 -7 -13 -14 -32 -16 -43 -3 -12 -6 -21 -7 -22 -2 -1 -37 -27 -78
-58 -82 -62 -107 -74 -223 -114 -91 -31 -127 -56 -127 -88 0 -21 6 -24 55 -30
30 -3 137 1 237 10 144 12 256 15 523 10 187 -3 426 -7 530 -9 105 -2 282 1
395 6 160 8 225 7 295 -3 50 -8 95 -13 100 -11 6 1 7 -1 3 -4 -17 -17 16 -46
69 -61 84 -24 303 -5 303 27 0 5 11 14 25 21 l24 11 -43 51 c-58 68 -104 145
-112 187 -4 19 -13 47 -21 62 -8 15 -11 32 -8 37 3 6 3 16 -2 22 -4 7 -9 31
-10 53 -1 22 -4 67 -7 100 -16 185 -16 202 -1 215 17 14 20 56 6 65 -16 9 1
118 25 160 33 58 37 100 17 175 l-18 65 -62 20 c-35 10 -63 25 -63 32 0 6 -6
16 -14 20 -17 11 -36 47 -36 71 0 24 -56 195 -76 235 -9 16 -14 31 -11 33 5 6
57 -46 57 -57 0 -19 90 -52 129 -46 21 2 44 1 52 -4 8 -4 21 -4 28 0 15 9 79
-19 128 -55 40 -31 68 -30 89 0 28 44 15 67 -56 104 -36 19 -66 35 -68 36 -1
2 4 16 13 32 22 43 19 71 -16 132 -28 49 -30 60 -21 91 5 20 10 61 11 91 2 98
10 113 72 133 52 17 56 21 68 63 10 34 11 47 2 58 -10 11 -9 21 3 45 9 16 13
36 10 45 -3 8 -12 41 -19 73 -30 134 -92 278 -154 362 -33 44 -63 91 -67 103
-12 39 -68 119 -144 207 l-73 85 21 37 c38 66 32 84 -45 123 -38 18 -77 44
-88 56 -11 13 -40 32 -65 44 -25 12 -65 33 -90 48 -25 14 -67 28 -95 32 -27 3
-53 10 -57 14 -8 8 112 168 144 190 10 7 18 18 18 24 0 6 10 20 23 32 12 12
38 42 57 66 47 59 68 80 79 80 5 0 23 18 39 41 17 23 55 61 84 86 69 59 80 79
62 114 -7 15 -22 29 -33 32 -30 8 -65 -15 -68 -44 -1 -15 -15 -41 -32 -60 -40
-44 -40 -28 1 25 l32 41 -38 -35 c-21 -19 -44 -48 -53 -63 -14 -27 -15 -28
-33 -12 -24 21 -70 16 -84 -10 -14 -25 -93 -151 -118 -187 -10 -15 -18 -31
-18 -37 0 -5 -4 -11 -9 -13 -5 -1 -36 -45 -68 -97 -33 -52 -64 -96 -69 -98 -5
-2 -14 11 -19 29 -6 21 -17 34 -30 36 -27 5 -45 30 -45 63 0 14 -7 32 -15 39
-9 7 -13 20 -11 27 6 14 -16 112 -51 238 -24 84 -121 227 -176 259 -50 29
-104 45 -93 27z m43 -17 c-3 -3 -12 -4 -19 -1 -8 3 -5 6 6 6 11 1 17 -2 13 -5z
m-2 -24 c3 -5 -3 -10 -14 -10 -12 0 -21 5 -21 10 0 6 6 10 14 10 8 0 18 -4 21
-10z m-100 -375 c-42 -36 -67 -47 -44 -18 14 16 69 53 79 53 3 -1 -13 -16 -35
-35z m65 25 c0 -5 -4 -10 -10 -10 -5 0 -10 5 -10 10 0 6 5 10 10 10 6 0 10 -4
10 -10z m44 -96 c-54 -19 -121 -18 -121 1 0 8 6 16 14 19 7 3 13 -1 13 -9 0
-8 5 -15 11 -15 5 0 8 4 4 9 -3 5 0 13 6 17 8 4 9 3 5 -4 -8 -14 -4 -15 18 -6
9 3 13 10 10 15 -3 5 3 9 13 10 10 0 3 5 -16 11 -25 7 -31 12 -21 18 9 6 29
-2 58 -22 l45 -31 -39 -13z m-184 46 c0 -5 11 -12 24 -16 23 -5 23 -7 8 -25
-18 -21 -56 -24 -96 -9 -36 13 -33 25 12 43 46 19 52 20 52 7z m-193 -32 c-3
-7 -5 -2 -5 12 0 14 2 19 5 13 2 -7 2 -19 0 -25z m948 -27 c-3 -6 -11 -11 -17
-11 -6 0 -6 6 2 15 14 17 26 13 15 -4z m-853 -20 c8 11 9 11 5 -1 -6 -22 -31
-18 -35 5 -3 19 -2 19 9 1 9 -15 13 -16 21 -5z m53 -1 c-3 -5 -11 -10 -16 -10
-6 0 -7 5 -4 10 3 6 11 10 16 10 6 0 7 -4 4 -10z m775 -20 c0 -5 -2 -10 -4
-10 -3 0 -8 5 -11 10 -3 6 -1 10 4 10 6 0 11 -4 11 -10z m-848 -27 c-17 -30
44 -177 92 -222 14 -14 26 -29 26 -35 0 -20 -61 60 -94 124 -48 92 -57 150
-25 150 6 0 7 -6 1 -17z m131 -423 c3 -11 1 -18 -4 -14 -5 3 -9 12 -9 20 0 20
7 17 13 -6z m-318 -279 c-12 -24 -22 -31 -43 -30 l-27 2 25 4 c18 3 30 14 38
35 6 18 14 29 18 26 3 -3 -2 -20 -11 -37z m-146 -75 c-3 -3 -11 5 -18 17 -13
21 -12 21 5 5 10 -10 16 -20 13 -22z m419 -131 c-12 -24 -23 -43 -26 -41 -4 5
36 86 43 86 3 0 -5 -20 -17 -45z m-48 -111 c-10 -27 -19 -43 -20 -37 0 16 31
95 36 90 2 -2 -5 -25 -16 -53z m982 -59 c47 -108 68 -168 74 -209 3 -23 13
-55 22 -73 15 -30 15 -33 -1 -51 -21 -23 -22 -71 -2 -78 11 -5 12 -11 5 -24
-19 -35 -12 -80 13 -89 112 -44 137 -61 120 -83 -11 -14 -11 -117 0 -135 7
-11 -16 -66 -38 -93 -7 -8 -15 -23 -16 -33 -4 -16 -6 -16 -41 3 -21 11 -44 20
-51 20 -7 0 -28 11 -47 24 -27 18 -40 38 -55 82 -11 33 -18 76 -16 97 3 41
-10 66 -69 131 -37 41 -75 132 -59 142 4 2 4 16 -1 30 -6 14 -7 31 -4 36 4 6
7 26 6 44 -1 22 8 44 28 69 16 20 32 54 35 74 4 20 15 61 26 91 12 30 23 65
26 78 7 29 12 23 45 -53z m-875 -261 c-3 -3 -12 -4 -19 -1 -8 3 -5 6 6 6 11 1
17 -2 13 -5z m83 -8 c0 -9 -30 -14 -35 -6 -4 6 3 10 14 10 12 0 21 -2 21 -4z
m-150 -60 c0 -8 -4 -18 -10 -21 -5 -3 -10 3 -10 14 0 12 5 21 10 21 6 0 10 -6
10 -14z m1054 -31 c-9 -14 -19 -23 -22 -20 -5 4 26 45 35 45 2 0 -4 -11 -13
-25z m-938 -111 c-4 -20 -10 -34 -12 -31 -3 3 -2 21 2 41 3 21 9 35 11 32 3
-3 2 -21 -1 -42z m-16 -95 c0 -11 -4 -17 -10 -14 -6 3 -7 -1 -4 -9 9 -24 -4
-52 -18 -38 -15 15 -1 82 17 82 8 0 15 -9 15 -21z m-360 -163 c0 -3 -6 -11
-13 -18 -7 -7 -37 -46 -67 -86 -30 -40 -56 -68 -58 -63 -2 5 27 46 64 90 64
76 74 87 74 77z m307 -128 c-3 -7 -5 -2 -5 12 0 14 2 19 5 13 2 -7 2 -19 0
-25z m-362 -20 c-16 -12 -66 -59 -110 -105 -44 -46 -85 -83 -89 -83 -20 0 137
159 189 191 41 26 47 23 10 -3z m1435 -68 c0 -29 -4 -40 -15 -40 -10 0 -15 10
-15 33 0 19 3 37 7 40 15 16 23 5 23 -33z m-1119 -86 c-5 -16 -10 -21 -10 -12
-1 18 10 51 15 45 2 -1 -1 -16 -5 -33z m-607 -186 c-11 -13 -28 -36 -38 -51
-10 -16 -20 -26 -23 -23 -8 7 35 74 55 86 26 15 27 12 6 -12z m893 -433 l8
-260 33 -3 c31 -3 32 -2 32 32 0 34 2 36 33 36 l33 0 -4 223 c-3 221 -3 222
16 198 11 -13 41 -91 67 -172 53 -166 59 -175 178 -229 34 -15 79 -40 101 -55
21 -14 52 -29 70 -32 34 -6 106 -76 106 -102 0 -9 9 -23 20 -31 11 -8 20 -20
20 -26 0 -7 7 -14 15 -18 8 -3 15 -12 15 -19 0 -8 9 -22 20 -32 11 -10 18 -20
15 -23 -2 -3 7 -24 20 -47 14 -23 25 -51 25 -61 0 -11 4 -24 10 -30 12 -12 13
-61 3 -153 -8 -72 -9 -75 -38 -83 -35 -10 -491 -11 -720 -1 -88 3 -276 6 -417
5 l-257 0 -15 23 c-9 14 -16 36 -16 51 0 14 -7 54 -16 88 -18 68 -24 175 -11
183 4 3 7 15 6 26 -1 12 0 29 3 37 3 8 11 35 19 60 7 25 16 50 21 56 4 6 6 13
3 16 -3 3 4 13 15 23 11 10 20 25 20 34 1 20 24 51 38 51 16 0 84 38 106 60
14 14 21 37 24 79 4 58 5 59 44 77 21 9 58 36 82 58 37 35 45 49 51 93 7 55 5
53 155 167 l45 34 7 -37 c4 -20 11 -153 15 -296z"/>
<path d="M8834 5303 c-9 -10 -33 -25 -53 -34 -20 -9 -53 -30 -75 -48 -44 -35
-136 -146 -136 -164 0 -6 15 11 34 38 48 72 118 132 194 169 37 17 68 37 70
44 3 17 -14 15 -34 -5z"/>
<path d="M961 4875 l0 -105 154 0 c103 0 155 4 155 11 0 5 5 7 12 3 17 -11
168 -17 168 -7 -1 23 -20 30 -80 29 l-65 -1 -3 54 -3 53 73 -3 c67 -4 74 -2
83 18 10 23 48 39 53 23 2 -6 8 -8 13 -4 5 3 9 -7 9 -21 0 -18 -4 -24 -12 -19
-10 6 -10 4 0 -7 13 -14 17 -70 5 -67 -14 3 -73 -13 -73 -20 1 -19 19 -30 60
-36 31 -5 41 -4 30 3 -12 8 -9 12 13 20 23 9 27 16 28 53 1 24 0 48 -1 53 -15
58 -18 55 59 55 41 0 71 4 71 10 0 6 -131 10 -374 10 l-375 0 0 -105z m89 58
c1 -17 1 -17 14 0 17 22 22 22 30 -5 7 -22 8 -22 15 -4 7 18 9 17 18 -10 6
-16 8 -48 4 -69 l-7 -40 -49 3 c-27 1 -53 8 -57 15 -11 17 -10 85 2 108 13 24
30 25 30 2z m203 -21 c10 -9 17 -29 17 -52 0 -40 -11 -50 -56 -50 -13 0 -24
-6 -25 -12 0 -10 -2 -10 -6 0 -2 6 -11 12 -19 12 -10 0 -14 12 -14 43 0 50 7
63 40 75 26 10 34 8 63 -16z"/>
<path d="M2260 4964 c0 -11 5 -14 16 -10 9 3 29 6 45 6 16 0 29 5 29 10 0 6
-20 10 -45 10 -35 0 -45 -4 -45 -16z"/>
<path d="M2555 4970 c3 -5 8 -10 11 -10 2 0 4 5 4 10 0 6 -5 10 -11 10 -5 0
-7 -4 -4 -10z"/>
<path d="M2598 3848 c2 -623 5 -1135 7 -1137 2 -2 31 0 64 4 l61 7 0 1129 0
1129 -67 0 -68 0 3 -1132z"/>
<path d="M2764 4715 c0 -148 2 -211 3 -138 2 72 2 194 0 270 -1 76 -3 17 -3
-132z"/>
<path d="M2784 4762 c-6 -1207 -5 -1576 1 -1684 4 -79 3 -128 -2 -128 -6 0 -6
-23 0 -61 5 -35 5 -64 0 -68 -5 -3 -10 -20 -11 -37 -4 -36 16 -56 50 -53 59 5
78 0 78 -23 0 -64 47 -168 90 -200 26 -19 29 -27 24 -54 -3 -19 -1 -35 5 -39
8 -4 11 -140 9 -473 -1 -257 -3 -457 -6 -444 -4 25 -32 31 -32 6 0 -8 4 -13 8
-10 5 3 9 -1 9 -9 0 -8 -6 -16 -14 -19 -7 -3 -12 -2 -12 2 3 18 -2 45 -7 40
-11 -12 -16 -70 -5 -63 14 8 14 -2 -3 -59 -20 -65 -58 -112 -116 -141 -28 -14
-57 -37 -67 -51 -32 -49 -69 -57 -308 -62 -193 -3 -232 -2 -318 16 -54 12
-109 28 -123 37 -40 26 -65 87 -65 161 -1 63 -1 65 -15 39 -20 -38 -17 -71 11
-140 22 -54 48 -85 79 -92 6 -1 49 -11 96 -22 48 -12 121 -21 167 -21 71 0 82
-2 88 -19 15 -50 88 -143 132 -171 l47 -30 -1000 -2 -999 -3 0 -25 c0 -21 5
-26 33 -28 l33 -3 -3 -170 -3 -169 28 0 27 0 0 170 0 170 705 0 705 0 0 -170
0 -170 28 0 27 0 -3 170 -2 170 705 0 705 0 0 -170 0 -170 30 0 30 0 0 170 0
170 700 0 700 0 0 -170 0 -170 30 0 30 0 0 170 0 170 705 0 705 0 0 -170 0
-170 25 0 25 0 0 170 0 170 705 0 705 0 0 -170 0 -170 28 0 27 0 -3 170 -2
170 705 0 705 0 0 -170 0 -170 30 0 30 0 0 170 0 170 700 0 700 0 0 -170 0
-170 30 0 30 0 0 169 0 170 28 3 c21 2 27 8 27 28 l0 25 -2835 3 c-2430 2
-2832 4 -2814 16 15 11 69 14 243 15 195 1 227 3 254 18 17 10 32 23 34 29 6
17 -81 22 -264 17 -90 -3 -163 -2 -163 3 0 4 17 26 39 49 22 22 46 62 55 89
18 55 22 192 6 245 l-9 34 24 -23 c29 -27 108 -38 165 -23 30 8 35 13 32 36
-4 39 -54 206 -96 322 -20 55 -36 105 -36 110 0 7 237 9 695 7 l695 -2 0 234
0 235 -32 4 -33 4 33 1 c29 2 32 5 32 32 l0 30 -471 0 c-470 0 -471 0 -494 22
-19 18 -22 29 -18 72 3 28 8 54 12 59 13 14 111 20 134 9 26 -13 227 -21 227
-10 0 4 -4 8 -10 8 -19 0 -40 60 -39 112 0 65 29 156 47 151 6 -3 12 2 12 10
0 20 47 28 61 10 7 -7 9 -16 6 -19 -3 -3 1 -21 9 -39 20 -49 18 -75 -6 -75
-30 0 -42 -30 -18 -49 24 -20 15 -49 -19 -62 -15 -5 -22 -14 -18 -21 4 -7 -2
-3 -12 9 -11 14 -23 19 -31 15 -9 -6 -6 -14 13 -30 24 -21 33 -22 223 -21 119
0 189 4 176 9 -14 5 -23 20 -27 43 -6 41 26 200 42 205 6 2 11 23 11 47 0 24
5 47 10 50 6 3 10 1 10 -5 0 -6 10 -34 21 -61 15 -34 26 -48 36 -45 8 3 12 2
9 -3 -3 -5 1 -25 9 -45 18 -43 20 -167 3 -184 -9 -9 0 -12 42 -11 46 0 51 2
29 10 -25 9 -25 12 -27 110 -1 56 3 110 9 121 15 28 20 17 10 -20 -8 -28 -7
-32 10 -32 18 0 19 9 19 210 l0 210 -232 2 -233 2 235 6 c195 5 211 6 95 8
-77 1 -276 2 -442 2 -265 0 -303 1 -303 15 0 23 -16 18 -34 -10 -20 -30 -37
-32 -61 -5 -12 14 -16 27 -11 47 4 15 8 35 9 43 3 22 18 30 57 29 28 -1 31 -2
12 -7 -20 -6 348 -9 487 -4 l54 2 -23 20 c-13 11 -20 23 -17 26 11 11 39 -5
44 -26 5 -19 14 -20 184 -20 l179 0 -1 148 0 147 -73 3 c-59 3 -74 0 -79 -12
-4 -10 -1 -16 8 -16 8 0 15 -9 15 -19 0 -27 -38 -38 -59 -16 -15 15 -15 17 2
30 26 19 6 26 -47 16 -26 -5 -49 -5 -51 -1 -9 14 -63 -12 -60 -29 1 -9 8 -15
14 -14 6 2 11 -2 11 -7 0 -6 -6 -10 -14 -10 -8 0 -21 -3 -30 -6 -11 -4 -16 0
-16 14 0 12 5 24 10 27 14 8 13 18 -4 41 -14 19 -14 19 -13 -1 1 -13 -4 -20
-15 -19 -72 3 -79 5 -76 16 5 14 66 30 116 30 17 0 51 0 75 -1 23 0 69 1 102
1 33 1 76 0 95 -1 19 -2 47 -3 63 -2 l27 1 0 165 0 165 -47 -7 c-27 -3 -50
-10 -53 -14 -4 -6 -102 -12 -164 -10 -16 1 -17 3 -5 18 12 15 12 16 -3 10 -23
-8 -614 -11 -628 -2 -9 5 -14 -7 -11 -27 0 -3 -12 -3 -27 1 -15 4 -33 6 -40 3
-11 -3 -13 16 -12 94 1 55 -3 117 -8 139 -7 27 -10 -243 -12 -825 -1 -476 -5
-892 -9 -925 l-7 -60 -9 50 c-4 28 -5 604 -2 1282 3 677 3 1256 0 1287 l-6 56
-103 0 -104 0 -1 -392 c0 -216 -2 -864 -3 -1440 0 -576 -5 -1050 -9 -1054 -4
-4 -7 644 -7 1439 l0 1447 -80 0 -80 0 0 -1017 c-1 -918 -2 -1016 -16 -998 -8
11 -20 19 -25 17 -6 -1 -5 6 1 18 11 20 12 231 2 388 l-4 62 -44 0 c-38 0 -46
-4 -54 -25 l-10 -25 -183 0 -184 0 -12 58 c-7 31 -30 94 -51 140 -21 45 -34
82 -29 82 5 0 26 -7 46 -15 19 -8 48 -15 64 -15 16 0 49 -5 74 -12 39 -11 48
-10 55 2 8 13 10 12 10 -3 0 -14 5 -17 21 -12 15 5 29 -4 62 -41 23 -26 48
-57 55 -70 11 -21 20 -24 72 -24 46 0 60 3 60 15 0 9 6 12 15 9 18 -7 18 -8 6
33 -11 39 -2 52 16 21 10 -19 12 9 13 173 0 108 3 224 6 258 l7 61 -61 0 c-55
0 -61 -2 -64 -22 l-3 -23 -285 0 -285 0 -2 35 c-1 19 -2 85 -2 146 l-1 111
-27 -5 c-16 -2 -34 -9 -41 -15 -9 -7 -25 -4 -52 8 -31 14 -40 24 -41 44 0 25
-1 25 -11 5 -8 -17 -21 -23 -64 -26 -30 -3 -60 -10 -67 -17 -9 -10 -6 -10 16
-2 89 34 215 -16 256 -102 20 -41 20 -46 6 -101 -20 -77 -23 -81 -49 -58 -56
53 -189 102 -274 102 -22 0 -56 -7 -75 -15 -58 -24 -95 -19 -128 16 -29 31
-29 31 -19 5 7 -20 7 -28 -3 -31 -34 -10 -39 -15 -11 -11 34 5 115 -16 150
-39 17 -11 24 -12 27 -2 4 9 8 8 16 -3 5 -8 7 -18 5 -22 -3 -4 10 -8 28 -7 31
1 31 2 8 9 -24 7 -24 8 -5 15 11 5 24 15 28 22 11 17 27 7 27 -17 0 -10 7 -20
15 -24 26 -10 18 -64 -14 -97 -33 -32 -47 -35 -84 -16 -20 11 -23 17 -15 25 9
9 4 12 -21 12 -30 0 -33 2 -27 25 l6 25 -220 0 -221 0 3 -22 c3 -21 0 -22 -79
-21 -92 2 -103 5 -103 34 0 17 -7 19 -70 19 -62 0 -70 -2 -70 -19 0 -15 -11
-19 -72 -24 -72 -6 -86 -2 -100 33 -2 4 -75 9 -163 11 l-160 4 -3 -23 c-3 -19
-9 -23 -35 -20 -31 3 -32 4 -32 53 0 49 0 50 35 56 30 5 31 7 8 8 -15 0 -30 6
-34 12 -13 21 -24 -15 -24 -78 l0 -62 43 -4 42 -4 -42 -1 c-24 -1 -43 -6 -43
-12 0 -5 4 -10 8 -10 5 0 9 -7 9 -15 0 -8 -4 -12 -9 -9 -4 3 -7 -23 -6 -58 l1
-63 7 55 7 55 1 -55 c2 -51 14 -80 34 -80 4 0 9 26 11 58 2 31 4 -37 5 -153 1
-184 0 -208 -13 -191 -8 11 -12 31 -9 50 14 91 16 206 4 221 -24 29 -30 14
-32 -87 l-2 -103 -6 115 c-5 88 -6 55 -8 -142 l-2 -258 35 0 35 0 2 -62 c1
-35 2 -121 2 -193 1 -111 3 -129 16 -125 8 2 46 4 84 3 54 -1 73 -5 82 -18 9
-11 38 -22 81 -29 l68 -11 -1 -85 -2 -85 7 68 c4 45 11 73 22 80 8 7 24 24 34
40 11 18 21 24 29 19 6 -5 21 -8 34 -7 33 3 48 -20 32 -50 -7 -13 -20 -24 -29
-23 -71 5 -93 -16 -95 -92 -1 -50 2 -60 16 -60 9 0 20 -4 23 -10 4 -6 56 -7
141 -3 90 4 138 3 142 -4 5 -7 37 -9 85 -5 53 3 74 8 65 14 -8 6 11 7 52 3
119 -10 160 -11 147 -3 -8 5 -8 8 -1 8 7 0 14 9 17 20 4 14 10 18 24 13 27 -9
43 -24 38 -34 -3 -4 23 -6 58 -2 137 12 72 -26 -178 -107 -55 -18 -129 -43
-165 -55 -59 -22 -85 -24 -292 -28 l-226 -4 -6 30 c-9 46 -7 70 9 101 24 46
17 52 -11 10 -15 -21 -35 -50 -45 -63 -15 -18 -16 -27 -8 -37 6 -8 17 -14 24
-14 9 0 15 -26 19 -87 3 -49 11 -146 18 -218 15 -150 16 -232 4 -260 -7 -19
-7 -19 7 -3 8 10 19 18 26 18 6 0 11 9 11 20 0 11 5 20 11 20 7 0 9 -16 5 -47
-3 -27 -10 -91 -16 -143 -7 -52 -18 -146 -26 -209 -26 -198 -21 -204 189 -209
84 -2 192 1 242 7 84 10 92 13 120 45 16 19 40 37 52 41 64 18 216 258 264
416 12 41 30 91 41 112 17 33 21 36 40 26 27 -15 67 -6 140 31 l59 30 302 0
c349 -1 452 -15 532 -70 24 -16 51 -30 59 -30 16 0 62 -64 48 -67 -4 -1 -24
-4 -44 -8 l-38 -6 30 -59 c17 -33 30 -66 30 -75 0 -33 -169 -7 -201 31 -6 8
-25 14 -42 14 -29 0 -26 -4 74 -102 58 -57 115 -118 128 -135 20 -30 21 -33 5
-33 -10 0 -52 18 -94 39 -98 51 -142 62 -248 62 -100 0 -167 -17 -234 -60 -41
-26 -54 -44 -98 -132 -28 -56 -62 -112 -76 -126 l-24 -24 -223 2 c-165 2 -228
-1 -246 -10 -18 -10 -64 -12 -196 -6 -114 5 -234 2 -361 -7 -104 -7 -239 -13
-300 -13 -132 0 -146 7 -170 94 -49 176 -94 292 -131 337 l-38 47 -2 104 -2
103 30 0 c27 0 29 -2 19 -21 -7 -11 -9 -23 -7 -26 3 -2 15 21 26 52 23 62 36
166 47 382 9 185 4 193 -94 193 -98 0 -116 21 -171 202 -29 92 -25 101 55 124
l53 15 0 1060 1 1059 -118 0 -117 0 -1 -218z m1950 -747 c4 -14 2 -34 -4 -45
-15 -29 -12 -46 14 -77 13 -15 33 -45 45 -65 l21 -38 -31 0 c-31 0 -122 -41
-135 -61 -7 -12 24 -5 66 16 73 36 122 24 194 -48 53 -53 94 -130 131 -247 21
-68 28 -111 32 -218 5 -124 7 -134 27 -142 14 -6 16 -9 5 -9 -11 -1 -16 -12
-17 -40 -2 -45 33 -168 54 -192 8 -9 12 -24 8 -33 -10 -27 25 -19 111 25 44
22 91 42 104 45 37 7 41 12 42 47 l1 32 15 -35 c8 -19 18 -37 23 -40 24 -17
41 -90 19 -90 -5 0 -8 4 -5 9 3 5 0 13 -7 19 -20 16 -87 42 -87 33 0 -5 15
-14 33 -22 35 -14 47 -26 47 -49 -1 -12 -4 -11 -15 4 -22 28 -62 14 -73 -27
-6 -17 -13 -39 -17 -48 -5 -14 -1 -16 36 -9 24 4 49 6 56 3 17 -7 30 -56 16
-60 -6 -2 -19 -11 -29 -19 -10 -9 -13 -13 -6 -9 15 8 56 -4 47 -13 -4 -4 -14
-7 -23 -7 -9 0 -18 -8 -20 -17 -2 -11 3 -18 12 -18 9 0 16 5 16 10 0 14 27 12
33 -2 3 -8 6 -6 6 4 1 16 38 44 46 36 2 -2 -3 -34 -11 -71 -23 -98 -24 -98
-234 -95 l-174 3 1 33 c3 88 0 82 41 82 91 0 142 24 112 54 -17 17 -11 43 12
49 12 4 19 9 15 13 -4 4 -19 1 -33 -6 -20 -11 -29 -12 -45 -2 -16 10 -24 10
-41 -2 -25 -18 -48 -5 -48 26 0 15 6 19 28 17 32 -4 70 15 53 25 -6 4 -11 3
-11 -2 0 -5 -17 -8 -37 -6 -38 2 -38 2 -35 43 4 45 -8 54 -23 19 -7 -17 -35
-32 -99 -56 -77 -29 -102 -33 -193 -35 -161 -3 -161 -4 -112 338 12 77 27 158
35 180 64 174 87 259 39 140 -26 -63 -53 -115 -91 -177 l-23 -37 -68 35 c-37
19 -101 42 -141 52 -70 16 -73 18 -67 42 4 14 8 46 9 71 2 33 18 77 56 150 68
134 98 179 137 204 18 11 32 24 33 29 0 6 9 20 21 32 23 25 27 39 28 104 1 33
4 41 11 30 8 -12 10 -11 10 6 0 15 -6 21 -17 20 -15 -1 -19 9 -21 51 -3 48 -1
53 25 66 34 18 58 8 67 -28z m1301 -155 c3 -5 1 -10 -4 -10 -6 0 -11 5 -11 10
0 6 2 10 4 10 3 0 8 -4 11 -10z m-2053 -85 c-2 -19 -8 -35 -13 -35 -5 0 -9 -5
-9 -11 0 -5 4 -8 9 -5 16 10 21 -117 7 -181 -17 -81 -5 -83 61 -11 80 88 103
107 119 101 13 -5 13 -8 -2 -24 -10 -11 -14 -22 -11 -25 6 -6 -38 -46 -94 -87
l-24 -18 30 5 c48 6 136 43 190 80 27 18 59 36 69 40 33 11 -2 -23 -47 -45
-46 -24 -43 -34 6 -21 29 8 35 7 30 -4 -4 -11 13 -8 65 11 38 14 72 25 74 25
3 0 -10 -30 -28 -66 -19 -36 -34 -71 -34 -78 0 -16 -72 -26 -188 -26 -53 0
-81 -4 -77 -10 3 -5 -2 -10 -12 -11 -10 -1 -2 -5 17 -9 24 -6 37 -5 45 5 7 9
43 14 108 17 94 4 98 3 95 -17 -5 -34 -129 -39 -513 -23 -22 1 -69 -1 -105 -4
-36 -3 -50 -3 -32 -1 26 3 32 9 32 29 l0 25 -147 -3 -148 -3 -3 -27 c-3 -28
-4 -28 -78 -28 l-74 0 0 35 0 35 -52 0 c-63 0 -70 -4 -92 -52 -33 -68 -83 -57
-70 16 14 85 36 96 205 96 124 0 154 9 91 28 -39 12 -127 81 -104 82 6 0 12
-4 12 -10 0 -5 4 -10 10 -10 5 0 7 7 4 15 -5 12 -2 13 12 7 51 -21 124 -63
124 -72 0 -6 9 -10 20 -10 11 0 23 -7 26 -15 4 -8 19 -15 35 -15 28 0 27 1
-31 58 -66 64 -80 95 -30 65 17 -9 30 -21 30 -26 0 -5 16 -7 35 -4 19 3 49 2
67 -3 l33 -10 -25 20 c-14 11 -32 22 -41 25 -14 5 -33 54 -24 63 1 2 18 -7 36
-19 19 -11 25 -18 15 -15 -16 5 -17 4 -6 -9 11 -13 39 -28 120 -64 14 -6 35
-18 48 -27 21 -16 22 -15 22 5 0 11 -4 21 -9 21 -5 0 -11 7 -15 15 -11 29 11
14 30 -20 17 -33 41 -51 52 -41 3 3 -14 43 -37 88 -22 46 -41 85 -41 89 0 3
15 5 34 5 27 0 38 -6 51 -28 9 -16 25 -28 36 -28 11 0 23 -10 28 -22 l8 -22
12 21 c6 12 11 32 11 44 0 50 36 153 55 159 1 0 -1 -16 -3 -35z m581 -40 c4
-8 2 -17 -3 -20 -6 -4 -10 3 -10 14 0 25 6 27 13 6z m-1083 -55 c0 -5 -2 -10
-4 -10 -3 0 -8 5 -11 10 -3 6 -1 10 4 10 6 0 11 -4 11 -10z m2687 -52 c-2 -13
-4 -3 -4 22 0 25 2 35 4 23 2 -13 2 -33 0 -45z m-2097 7 c0 -8 -9 -24 -19 -34
-11 -11 -17 -22 -13 -25 3 -3 -2 -6 -12 -6 -16 0 -15 3 3 26 12 15 21 33 21
40 0 8 5 14 10 14 6 0 10 -7 10 -15z m2150 -66 c-11 -8 4 -9 51 -6 37 2 73 1
80 -3 7 -5 23 -4 35 0 13 5 26 5 29 1 6 -11 44 -3 64 13 11 8 15 8 18 -2 3 -6
9 -10 14 -6 15 9 10 -13 -6 -26 -8 -7 -25 -10 -37 -7 -13 3 -32 2 -42 -2 -19
-7 -19 -8 2 -13 12 -4 22 -13 22 -22 0 -25 -29 -19 -42 9 -6 14 -18 25 -27 26
-9 0 -27 2 -41 3 -14 1 -53 3 -87 4 -35 1 -63 6 -63 11 0 14 31 43 38 36 4 -3
0 -11 -8 -16z m-3120 -38 c0 -17 -4 -33 -10 -36 -6 -4 -10 8 -10 29 0 20 5 36
10 36 6 0 10 -13 10 -29z m908 -1 c-15 -24 -22 -19 -13 9 3 12 11 19 16 16 5
-4 3 -14 -3 -25z m2147 20 c3 -5 -1 -10 -9 -10 -8 0 -18 5 -21 10 -3 6 1 10 9
10 8 0 18 -4 21 -10z m813 -32 c3 -15 -4 -18 -32 -18 -30 0 -36 4 -36 21 0 17
5 20 32 17 22 -2 34 -9 36 -20z m22 2 c0 -11 -2 -20 -4 -20 -2 0 -6 9 -9 20
-3 11 -1 20 4 20 5 0 9 -9 9 -20z m-692 -17 c3 -20 -1 -23 -32 -23 -38 0 -47
15 -24 38 20 20 53 10 56 -15z m266 21 c24 -9 21 -54 -4 -54 -23 0 -35 22 -26
45 6 17 8 17 30 9z m-184 -24 c0 -16 -7 -20 -30 -20 -23 0 -30 4 -30 20 0 16
7 20 30 20 23 0 30 -4 30 -20z m124 3 c4 -9 2 -21 -3 -26 -15 -15 -41 0 -41
23 0 25 35 28 44 3z m288 -2 c15 -18 14 -19 -23 -23 -47 -4 -48 -3 -42 23 7
25 43 25 65 0z m-602 -12 c0 -5 -7 -9 -15 -9 -15 0 -20 12 -9 23 8 8 24 -1 24
-14z m773 -6 c-13 -2 -33 -2 -45 0 -13 2 -3 4 22 4 25 0 35 -2 23 -4z m-187
-39 c-23 -16 -56 -19 -56 -4 0 6 11 10 24 10 14 0 28 5 31 11 4 6 10 7 13 4 4
-4 -2 -13 -12 -21z m-584 -4 c19 0 25 -25 8 -35 -5 -3 -10 -15 -10 -26 0 -10
-7 -19 -15 -19 -9 0 -15 9 -15 25 0 16 6 25 15 25 8 0 15 5 15 10 0 6 -6 10
-14 10 -8 0 -17 8 -21 18 -5 14 -4 15 6 5 7 -7 21 -13 31 -13z m318 0 c0 -13
-7 -20 -20 -20 -13 0 -20 7 -20 20 0 13 7 20 20 20 13 0 20 -7 20 -20z m-222
-2 c-7 -20 -68 -23 -68 -4 0 12 10 16 36 16 24 0 34 -4 32 -12z m46 3 c3 -5
-1 -11 -9 -15 -9 -3 -15 0 -15 9 0 16 16 20 24 6z m86 -6 c11 -13 8 -15 -14
-15 -16 0 -26 5 -26 15 0 8 6 15 14 15 7 0 19 -7 26 -15z m151 5 c20 -11 27
-50 9 -50 -5 0 -10 9 -10 21 0 15 -5 19 -15 15 -9 -3 -15 0 -15 9 0 18 5 18
31 5z m119 0 c0 -5 -11 -10 -25 -10 -14 0 -25 5 -25 10 0 6 11 10 25 10 14 0
25 -4 25 -10z m293 -20 c3 -13 0 -20 -9 -20 -8 0 -15 8 -15 18 -1 16 -2 16 -6
0 -6 -25 -43 -23 -43 2 0 16 7 20 34 20 25 0 35 -5 39 -20z m-167 -25 c3 -14
10 -25 14 -25 4 0 5 11 2 25 -2 14 0 25 6 25 26 0 42 -14 42 -36 0 -21 -5 -24
-33 -24 -26 0 -36 6 -45 25 -15 31 -15 35 -2 35 5 0 12 -11 16 -25z m-33 -6
c9 -34 -3 -49 -39 -49 -31 0 -34 3 -34 28 0 36 6 42 41 42 19 0 28 -6 32 -21z
m-493 -8 c0 -25 -11 -32 -38 -24 -13 3 -22 13 -22 24 0 14 7 19 30 19 23 0 30
-5 30 -19z m66 -28 c-2 -3 -9 -2 -15 2 -8 4 -7 13 1 28 l13 22 3 -23 c2 -13 1
-26 -2 -29z m94 27 c0 -16 -7 -20 -30 -20 -22 0 -30 5 -29 18 0 10 3 12 6 5 4
-10 10 -10 26 2 27 19 27 19 27 -5z m65 -5 c0 -30 -39 -27 -43 3 -3 20 0 23
20 20 15 -2 23 -10 23 -23z m175 11 c0 -28 -12 -46 -31 -46 -14 0 -19 7 -19
30 0 25 4 30 25 30 15 0 25 -6 25 -14z m-2955 -5 c-6 -6 -38 -7 -80 -2 l-70 8
80 2 c49 1 75 -3 70 -8z m3210 -11 c3 -5 -3 -10 -14 -10 -12 0 -21 5 -21 10 0
6 6 10 14 10 8 0 18 -4 21 -10z m-3430 -20 c4 -6 -7 -10 -27 -9 -31 1 -32 1
-8 9 14 4 26 8 27 9 1 1 5 -3 8 -9z m155 -6 c0 -2 -26 -4 -57 -3 -39 1 -50 3
-34 8 24 6 91 3 91 -5z m3196 -14 c8 0 14 -9 14 -20 0 -16 -7 -20 -34 -20 -36
0 -52 20 -33 39 6 6 18 9 25 6 8 -3 20 -5 28 -5z m-666 -9 c0 -15 -20 -24 -21
-9 0 10 -2 10 -6 0 -2 -6 -9 -10 -14 -6 -18 10 -9 24 16 24 14 0 25 -4 25 -9z
m67 -1 c22 0 14 -6 -19 -14 -22 -5 -28 -3 -28 10 0 11 5 14 16 10 9 -3 23 -6
31 -6z m183 -5 c0 -16 -12 -18 -47 -9 -31 8 -19 24 18 24 19 0 29 -5 29 -15z
m70 0 c0 -16 -35 -21 -44 -6 -8 12 4 21 26 21 10 0 18 -7 18 -15z m40 -7 c0
-16 -3 -19 -11 -11 -6 6 -8 16 -5 22 11 17 16 13 16 -11z m37 16 c-3 -3 -12
-4 -19 -1 -8 3 -5 6 6 6 11 1 17 -2 13 -5z m193 2 c0 -23 -17 -36 -46 -36 -39
0 -48 26 -11 33 33 6 57 8 57 3z m200 -5 c0 -10 -40 -22 -52 -15 -18 11 -6 24
22 24 17 0 30 -4 30 -9z m-670 -11 c0 -5 -4 -10 -10 -10 -5 0 -10 5 -10 10 0
6 5 10 10 10 6 0 10 -4 10 -10z m-1933 -115 c-4 -8 -2 -17 2 -20 5 -3 11 1 14
9 3 7 15 16 26 19 14 3 19 1 14 -6 -4 -6 0 -8 10 -4 20 8 79 -12 71 -24 -3 -5
2 -6 10 -3 8 3 19 -3 26 -15 6 -12 8 -21 5 -21 -3 0 0 -10 6 -22 l11 -21 19
24 c10 13 18 20 18 14 0 -5 -13 -26 -29 -45 -17 -19 -30 -38 -30 -42 0 -5 -11
-26 -25 -48 -14 -22 -39 -66 -56 -97 -17 -32 -36 -63 -42 -70 -9 -9 -47 -9
-166 2 -152 14 -183 13 -148 -6 16 -9 16 -11 1 -26 -14 -15 -20 -14 -66 11
-45 24 -58 27 -104 21 -55 -7 -78 6 -47 24 15 9 13 10 -14 11 -45 0 -45 -31
-1 -51 37 -16 49 -39 20 -39 -10 0 -28 11 -38 25 -10 14 -29 25 -41 25 -12 0
-25 5 -28 10 -9 14 -41 12 -74 -4 -33 -17 -38 -14 -75 44 -16 25 -40 55 -55
68 -19 17 -21 22 -8 18 10 -3 23 -6 28 -6 5 0 9 -7 9 -16 0 -11 6 -14 23 -8
31 9 32 10 10 46 -15 26 -17 38 -9 50 8 14 4 24 -19 48 -15 16 -38 33 -49 36
-20 7 -20 7 4 16 21 8 31 1 89 -56 l66 -65 80 14 c115 18 357 83 438 115 l69
29 -7 -27 c-7 -31 -34 -55 -53 -47 -7 3 -20 -2 -29 -11 -14 -14 -11 -15 33
-12 l48 3 16 50 c16 53 37 95 46 95 4 0 4 -7 1 -15z m1708 -78 c36 1 56 -13
48 -33 -3 -8 1 -14 11 -14 14 0 16 -16 14 -122 -2 -123 -2 -123 -5 -25 -3 77
-7 97 -18 97 -8 0 -15 -4 -15 -10 0 -5 5 -10 11 -10 5 0 7 -4 4 -10 -11 -18
-35 -11 -35 10 0 21 -19 28 -21 8 -2 -19 1 -50 7 -78 5 -24 5 -24 -15 -6 l-21
19 -1 -94 c-1 -121 -13 -224 -21 -189 -21 89 -28 164 -28 297 0 175 3 188 33
171 12 -7 36 -12 52 -11z m100 -15 c-3 -3 -11 0 -18 7 -9 10 -8 11 6 5 10 -3
15 -9 12 -12z m-2670 -13 c4 -5 0 -18 -9 -28 -9 -10 -14 -25 -11 -33 4 -10 -1
-17 -16 -21 -15 -4 -23 -1 -26 14 -4 15 -8 17 -19 8 -8 -7 -17 -9 -21 -6 -10
11 17 36 52 49 19 6 32 15 29 20 -3 4 -1 8 5 8 5 0 13 -5 16 -11z m1755 -49
c0 -5 11 -34 25 -64 27 -58 31 -86 15 -86 -5 0 -10 4 -10 8 0 5 -7 17 -15 28
-14 18 -15 17 -10 -11 6 -28 5 -28 -14 9 -11 21 -26 44 -32 52 -7 8 -9 17 -7
20 3 3 15 -7 27 -22 25 -31 27 -27 6 12 -10 20 -11 32 -3 41 15 18 11 17 -56
-17 -46 -23 -61 -27 -68 -18 -13 21 -9 38 8 38 8 0 12 -4 9 -10 -3 -5 -1 -10
5 -10 6 0 13 7 16 15 4 9 14 13 23 11 9 -3 27 0 41 8 26 13 40 12 40 -4z
m-1650 -15 c0 -8 -9 -15 -20 -15 -20 0 -26 11 -13 23 12 13 33 7 33 -8z m-332
-43 c2 -7 -2 -10 -12 -6 -9 3 -16 11 -16 16 0 13 23 5 28 -10z m1931 -33 c4
-12 2 -12 -13 0 -14 12 -16 12 -10 -3 3 -9 4 -16 1 -16 -2 0 -21 -7 -42 -15
-36 -16 -36 -16 -33 7 2 16 14 27 38 35 41 14 52 12 59 -8z m301 -106 c-9 -15
-10 -12 -6 16 3 18 7 50 8 70 1 25 3 20 5 -16 2 -29 -1 -61 -7 -70z m-263 40
c-3 -2 -11 7 -20 21 -9 13 -13 26 -10 30 3 3 12 -6 20 -21 7 -14 12 -28 10
-30z m-31 -10 c-8 -8 -12 -3 -21 27 l-7 25 17 -23 c9 -13 14 -26 11 -29z m-36
27 c0 -5 -2 -10 -4 -10 -3 0 -8 5 -11 10 -3 6 -1 10 4 10 6 0 11 -4 11 -10z
m-25 -10 c3 -5 -1 -10 -10 -10 -9 0 -13 5 -10 10 3 6 8 10 10 10 2 0 7 -4 10
-10z m432 -22 c-3 -8 -6 -5 -6 6 -1 11 2 17 5 13 3 -3 4 -12 1 -19z m-397 -9
c0 -18 -2 -20 -15 -9 -13 11 -13 15 -3 21 18 12 18 12 18 -12z m-40 -9 c7 -13
7 -20 1 -20 -6 0 -15 9 -21 20 -7 13 -7 20 -1 20 6 0 15 -9 21 -20z m1294 5
c5 -15 1 -17 -39 -19 -11 -1 -26 -5 -33 -10 -19 -12 -25 -1 -12 23 13 25 74
30 84 6z m-1944 -71 c0 -37 -6 -59 -20 -75 -22 -27 -26 -13 -8 26 9 20 9 31 0
45 -8 14 -9 27 0 50 14 43 28 21 28 -46z m2078 54 c2 -12 -2 -15 -16 -11 -11
2 -29 0 -40 -6 -24 -13 -38 0 -28 25 8 22 80 15 84 -8z m19 -68 c7 -19 12 -29
12 -22 1 6 7 12 15 12 7 0 19 7 26 16 8 8 21 19 31 24 14 8 16 6 12 -9 -3 -11
4 -28 16 -40 32 -32 26 -49 -20 -61 -32 -9 -39 -15 -34 -28 17 -41 16 -50 -4
-57 -12 -3 -30 1 -46 11 -28 18 -27 19 -29 -51 -1 -25 -5 -31 -30 -33 -40 -5
-46 5 -39 71 4 41 9 55 16 48 16 -16 27 -13 21 4 -3 8 -14 17 -25 20 -15 5
-19 16 -19 59 0 60 13 78 55 74 24 -2 32 -10 42 -38z m-2929 2 c4 -26 -6 -28
-24 -4 -18 24 -17 34 4 30 9 -2 18 -13 20 -26z m1712 -2 c0 -22 -16 -35 -25
-20 -9 14 4 52 16 45 5 -4 9 -15 9 -25z m178 5 c-6 -14 -13 -23 -15 -21 -5 5
15 46 22 46 3 0 -1 -11 -7 -25z m-1748 5 c12 -8 10 -10 -10 -10 -15 0 -32 -6
-39 -12 -11 -11 -11 -9 -2 10 13 24 27 27 51 12z m248 -8 c3 -9 -2 -13 -14
-10 -9 1 -19 9 -22 16 -3 9 2 13 14 10 9 -1 19 -9 22 -16z m176 12 c12 -5 13
-9 3 -25 -6 -10 -15 -19 -18 -19 -10 0 -20 30 -13 41 6 11 8 11 28 3z m-666
-38 c3 -12 -1 -17 -10 -14 -7 3 -15 13 -16 22 -3 12 1 17 10 14 7 -3 15 -13
16 -22z m412 -5 c0 -4 -9 -7 -20 -7 -20 0 -25 7 -14 19 7 7 34 -2 34 -12z
m-95 -21 c3 -5 -3 -10 -14 -10 -12 0 -21 5 -21 10 0 6 6 10 14 10 8 0 18 -4
21 -10z m-110 -40 c-7 -24 -28 -22 -33 2 -2 9 5 18 15 20 24 6 26 3 18 -22z
m2511 -22 c-2 -29 -5 -70 -5 -91 -1 -38 -1 -38 -38 -35 -37 3 -38 4 -41 48 -2
25 -1 64 3 88 6 41 7 42 46 42 l40 0 -5 -52z m-726 -223 c0 -218 -2 -265 -14
-265 -11 0 -14 40 -18 203 -3 111 -1 213 3 227 4 14 10 42 14 63 3 20 8 37 10
37 3 0 5 -119 5 -265z m-1910 225 c0 -5 -7 -10 -16 -10 -8 0 -12 5 -9 10 3 6
10 10 16 10 5 0 9 -4 9 -10z m274 4 c25 -10 8 -24 -30 -24 -49 0 -44 20 8 29
3 0 13 -2 22 -5z m966 -4 c0 -5 -5 -10 -11 -10 -5 0 -7 5 -4 10 3 6 8 10 11
10 2 0 4 -4 4 -10z m575 -20 c3 -5 1 -10 -4 -10 -6 0 -11 5 -11 10 0 6 2 10 4
10 3 0 8 -4 11 -10z m-365 -10 c0 -5 -2 -10 -4 -10 -3 0 -8 5 -11 10 -3 6 -1
10 4 10 6 0 11 -4 11 -10z m-2053 -212 c-2 -13 -4 -3 -4 22 0 25 2 35 4 23 2
-13 2 -33 0 -45z m2953 -99 c0 -5 -4 -9 -10 -9 -5 0 -10 7 -10 16 0 8 5 12 10
9 6 -3 10 -10 10 -16z m568 14 c-64 -2 -172 -2 -240 0 -68 1 -15 3 117 3 132
0 187 -2 123 -3z m155 0 c-7 -2 -19 -2 -25 0 -7 3 -2 5 12 5 14 0 19 -2 13 -5z
m175 -30 c-10 -2 -26 -2 -35 0 -10 3 -2 5 17 5 19 0 27 -2 18 -5z m-3857 -116
c-8 -8 -11 -7 -11 4 0 20 13 34 18 19 3 -7 -1 -17 -7 -23z m2899 -87 c0 -11
-4 -20 -10 -20 -5 0 -10 9 -10 20 0 11 5 20 10 20 6 0 10 -9 10 -20z m-1717
-270 c11 -10 -11 -52 -23 -45 -6 3 -7 -1 -4 -9 9 -24 -95 -223 -133 -252 -18
-14 -33 -32 -33 -40 0 -24 -45 -34 -152 -34 l-100 0 8 43 c4 23 7 51 7 62 0
16 28 123 72 275 4 13 31 15 177 12 95 -2 177 -7 181 -12z m1285 -415 c-3 -3
-9 2 -12 12 -6 14 -5 15 5 6 7 -7 10 -15 7 -18z m-293 -79 c66 -51 68 -151 3
-199 -14 -11 -48 -22 -75 -24 -96 -9 -165 78 -133 169 31 87 127 113 205 54z
m-512 -130 c7 -76 31 -140 69 -184 15 -18 28 -34 28 -35 0 -1 -387 -3 -860 -3
-473 -1 -860 0 -860 1 0 2 15 22 34 44 36 43 72 125 82 189 l6 39 43 -16 c38
-13 66 -13 246 -2 112 8 362 15 556 15 194 1 355 5 359 9 4 4 71 7 149 7 l142
0 6 -64z m312 -130 c11 -2 33 -9 48 -15 40 -16 84 -13 147 9 l55 18 -29 -23
c-29 -23 -88 -45 -122 -45 -45 0 -101 25 -131 57 -18 19 -33 39 -33 44 0 6 10
-1 23 -16 12 -14 31 -27 42 -29z m-135 -171 c11 -13 -98 -15 -941 -15 -903 1
-953 2 -933 18 19 16 83 17 941 14 801 -2 922 -4 933 -17z"/>
<path d="M4666 4021 c-15 -17 -16 -19 -1 -25 22 -8 35 1 35 25 0 24 -12 24
-34 0z"/>
<path d="M5360 2640 c0 -6 7 -10 15 -10 8 0 15 2 15 4 0 2 -7 6 -15 10 -8 3
-15 1 -15 -4z"/>
<path d="M5301 2626 c-10 -12 -8 -13 8 -9 12 3 21 9 21 14 0 14 -16 11 -29 -5z"/>
<path d="M3920 3381 c0 -17 41 -22 100 -13 52 9 53 10 15 11 -22 1 -57 4 -77
7 -25 4 -38 3 -38 -5z"/>
<path d="M3692 2858 c7 -19 38 -22 38 -4 0 10 -9 16 -21 16 -12 0 -19 -5 -17
-12z"/>
<path d="M4060 2846 c0 -9 30 -14 35 -6 4 6 -3 10 -14 10 -12 0 -21 -2 -21 -4z"/>
<path d="M6090 3060 c0 -5 5 -10 11 -10 5 0 7 5 4 10 -3 6 -8 10 -11 10 -2 0
-4 -4 -4 -10z"/>
<path d="M5097 1319 c-23 -13 -47 -62 -47 -94 0 -43 50 -85 100 -85 33 0 48 6
71 29 41 41 39 83 -5 127 -36 36 -82 45 -119 23z m108 -34 c35 -35 33 -76 -6
-109 -17 -14 -37 -26 -45 -26 -24 0 -71 28 -78 45 -33 86 65 154 129 90z"/>
<path d="M5122 1258 c-30 -30 3 -68 43 -50 22 10 24 14 13 37 -12 27 -36 33
-56 13z m38 -28 c0 -5 -4 -10 -10 -10 -5 0 -10 5 -10 10 0 6 5 10 10 10 6 0
10 -4 10 -10z"/>
<path d="M3660 1050 c-25 -4 211 -8 524 -8 313 -1 567 1 563 4 -9 9 -1034 13
-1087 4z"/>
<path d="M6000 4578 c0 -221 3 -398 7 -395 3 4 6 20 5 37 0 16 4 30 9 30 5 0
9 5 9 11 0 5 -5 7 -10 4 -7 -5 -11 20 -10 72 1 88 30 168 65 177 31 9 55 7 55
-4 0 -5 -13 -10 -30 -10 -18 0 -30 -5 -30 -13 0 -20 40 -59 55 -53 10 3 13 -4
13 -25 -1 -16 2 -32 5 -36 4 -3 7 2 8 13 0 10 2 32 3 47 1 16 -2 31 -6 33 -11
7 -10 44 1 44 14 0 21 -55 21 -160 0 -93 -1 -98 -20 -93 -32 8 -42 -33 -19
-79 11 -21 23 -38 27 -38 4 0 5 -22 4 -50 l-4 -50 34 -2 c101 -4 762 5 790 12
l33 7 -43 8 c-24 4 -46 14 -49 21 -5 13 61 84 78 84 5 0 9 98 9 219 l0 218
-87 7 c-49 3 -244 6 -435 6 l-348 0 -6 -25 c-6 -25 -20 -30 -61 -19 -16 4 -23
14 -23 30 0 13 -4 24 -10 24 -5 0 -7 7 -3 16 5 13 7 13 14 2 6 -9 9 -7 9 9 0
29 40 55 82 53 18 -1 221 -2 451 -1 402 1 417 2 417 20 0 24 -19 31 -85 31
-33 0 -55 -5 -58 -12 -3 -7 -6 15 -6 50 l-1 62 75 0 75 0 0 60 0 60 -505 0
-505 -1 0 -401z m553 302 c-5 -17 0 -20 28 -20 19 0 72 -3 119 -6 87 -6 119
-21 104 -46 -16 -26 -2 -74 19 -61 4 2 7 0 7 -6 0 -6 -58 -11 -150 -13 l-150
-3 0 65 c0 70 8 110 20 110 5 0 6 -9 3 -20z m-283 -6 c0 -8 -5 -12 -10 -9 -6
4 -8 11 -5 16 9 14 15 11 15 -7z m222 -13 c2 -21 -1 -51 -7 -77 -4 -20 -10
-21 -77 -17 -40 3 -76 10 -79 15 -4 7 -9 6 -13 -1 -11 -18 -22 -13 -35 15 -19
44 -1 54 95 54 77 0 84 2 84 20 0 24 29 16 32 -9z m447 25 c-10 -10 -79 -15
-79 -6 0 6 19 10 42 10 23 0 39 -2 37 -4z m-760 -65 c-2 -6 -10 2 -17 17 -11
25 -11 25 4 10 9 -9 15 -21 13 -27z m482 -586 c33 -14 31 -14 -60 -15 -57 0
-91 4 -85 9 23 23 100 26 145 6z m-414 -87 c6 15 33 16 33 1 0 -6 -5 -19 -11
-30 -7 -15 -7 -24 2 -35 13 -16 34 -20 24 -4 -3 5 -1 28 5 50 10 38 13 40 43
37 18 -2 24 -2 15 0 -10 2 -18 9 -18 14 0 6 29 9 68 8 l68 -2 1 -46 c1 -36 0
-41 -7 -23 -12 30 -17 28 -13 -5 2 -16 0 -33 -4 -39 -4 -6 -43 -13 -86 -16
-70 -5 -81 -3 -98 15 -10 12 -19 24 -19 28 0 4 -7 10 -16 13 -14 5 -15 4 -4
-9 10 -12 10 -18 0 -30 -19 -22 -32 -14 -36 22 -3 23 1 33 12 35 14 3 13 7 -5
30 -32 40 -25 44 11 7 19 -22 33 -29 35 -21z m498 12 c-5 -39 -4 -40 25 -40
24 0 28 -3 23 -17 -4 -10 -11 -21 -17 -25 -7 -5 -3 -8 9 -8 14 0 16 -3 8 -8
-7 -5 -77 -8 -155 -8 l-143 1 -3 73 -3 72 130 0 131 0 -5 -40z m100 10 c-19
-36 -35 -39 -35 -7 0 29 7 37 32 37 17 0 18 -2 3 -30z m124 6 c-28 -27 -69
-50 -69 -39 0 5 14 17 30 26 17 10 30 22 30 28 0 5 7 9 16 9 13 0 12 -5 -7
-24z"/>
<path d="M6738 4823 c7 -3 16 -2 19 1 4 3 -2 6 -13 5 -11 0 -14 -3 -6 -6z"/>
<path d="M6671 4784 c0 -11 3 -14 6 -6 3 7 2 16 -1 19 -3 4 -6 -2 -5 -13z"/>
<path d="M6563 4743 c9 -2 23 -2 30 0 6 3 -1 5 -18 5 -16 0 -22 -2 -12 -5z"/>
<path d="M6610 4169 c-30 -5 -65 -7 -76 -4 -19 4 -22 -1 -27 -37 -3 -24 -4
-44 -3 -46 2 -2 53 -5 112 -7 60 -2 104 -2 97 1 -6 3 -17 27 -24 55 -7 27 -15
48 -18 48 -3 -1 -31 -5 -61 -10z"/>
<path d="M2540 4885 c0 -37 4 -65 10 -65 6 0 10 -27 10 -61 0 -37 4 -58 10
-54 11 7 14 215 2 230 -4 6 -13 11 -19 13 -9 1 -13 -16 -13 -63z"/>
<path d="M2286 4924 c-9 -23 -8 -24 12 -23 9 0 12 3 5 5 -7 3 -9 12 -6 20 3 8
3 14 0 14 -3 0 -8 -7 -11 -16z"/>
<path d="M4106 4902 c-940 -2 -1021 -3 -1038 -19 -14 -13 -17 -24 -12 -47 3
-17 7 -35 8 -41 2 -14 23 -35 35 -35 18 0 12 17 -11 32 -28 19 -15 40 19 32
19 -5 24 -4 18 5 -4 7 -18 11 -30 8 -16 -2 -25 1 -28 12 -3 13 3 16 33 13 l37
-4 6 -73 c3 -40 3 -108 0 -152 l-6 -80 43 -6 c23 -3 57 -3 75 0 67 11 68 8 67
-208 -1 -107 1 -206 4 -221 5 -28 7 -28 80 -28 64 0 74 2 74 18 0 10 -12 22
-31 29 l-30 12 25 40 c15 22 26 52 26 67 0 26 0 26 -65 22 l-65 -4 0 49 0 49
64 -4 64 -3 5 30 c3 17 3 52 0 78 -5 46 -7 47 -39 47 l-34 0 -1 -52 c-1 -48
-2 -50 -10 -23 -5 17 -7 42 -5 57 3 15 1 30 -4 33 -13 8 7 46 22 42 7 -1 17 8
23 20 13 30 31 32 260 30 l190 -2 3 -26 c3 -30 -6 -34 -99 -45 -87 -10 -82
-24 8 -24 56 0 83 4 86 13 7 20 17 3 11 -20 -5 -18 -10 -20 -46 -11 -42 9
-133 6 -145 -6 -3 -3 -31 -6 -62 -6 -31 0 -72 -6 -92 -13 -29 -10 -4 -11 160
-9 l196 4 -3 -194 -3 -193 164 -3 164 -4 1 43 c2 47 15 62 49 56 13 -3 30 4
40 15 9 10 22 17 29 14 9 -3 10 3 4 25 -9 31 -2 37 18 17 9 -9 12 -9 12 1 0 7
-9 15 -20 18 -11 3 -20 13 -20 23 0 10 -7 31 -15 46 l-15 29 0 -27 c0 -16 -5
-28 -12 -28 -9 0 -9 -3 0 -12 18 -18 15 -28 -8 -28 -26 0 -28 -54 -2 -69 14
-9 12 -10 -13 -11 -48 0 -105 12 -105 22 0 5 6 8 13 7 25 -3 35 2 40 21 6 23
-14 32 -29 12 -9 -12 -15 -12 -33 -3 -17 10 -26 10 -37 0 -8 -6 -17 -9 -21 -6
-3 4 1 9 10 13 9 3 13 12 10 20 -6 17 -23 19 -23 1 0 -15 -36 -40 -70 -48 -21
-6 -19 -7 12 -8 46 -1 81 -40 72 -80 -10 -40 -23 -51 -63 -51 -28 0 -48 9 -78
35 -22 19 -43 31 -47 28 -8 -8 -8 230 0 279 6 36 7 37 58 41 l51 3 -52 2 -53
2 -2 80 c-1 44 -2 92 -2 108 -1 25 3 28 59 39 69 14 300 22 311 10 11 -11 4
-220 -8 -234 -8 -10 22 -13 153 -11 115 2 134 3 66 5 l-99 4 4 100 c2 61 7
103 14 107 7 4 65 6 129 4 l117 -3 -6 -25 c-6 -23 -5 -24 48 -24 66 0 79 -15
43 -46 -20 -17 -27 -33 -27 -59 0 -19 5 -35 10 -35 6 0 10 -4 10 -10 0 -6 -32
-11 -72 -11 -99 -2 -43 -16 67 -17 70 -1 78 0 62 13 -16 11 -18 23 -13 67 3
29 5 54 6 56 0 1 6 2 14 2 7 0 19 7 26 15 9 11 17 12 31 5 10 -6 22 -10 26 -9
43 7 53 -1 53 -47 0 -27 4 -43 10 -39 6 3 10 1 10 -4 0 -7 29 -11 73 -12 l72
-1 -44 -12 c-25 -6 -46 -16 -48 -22 -6 -18 22 -34 61 -36 20 -1 36 -5 36 -10
0 -5 5 -6 11 -2 6 3 8 16 5 28 -5 20 -4 20 15 -3 10 -13 19 -29 19 -36 0 -14
-78 -35 -127 -35 -43 0 -21 -9 36 -15 29 -3 64 -2 77 1 24 6 24 8 24 115 0 80
3 109 13 110 6 1 33 1 58 -1 26 -1 50 3 53 9 9 14 -37 25 -78 18 -38 -6 -56 7
-56 40 0 22 4 23 66 23 36 0 74 -5 85 -10 20 -11 27 -50 9 -50 -11 0 -13 -33
-4 -79 5 -24 12 -31 30 -31 22 0 23 2 21 93 l-2 92 83 3 82 3 0 -97 c0 -54 -3
-94 -7 -91 -3 4 -16 0 -29 -8 -12 -8 -33 -16 -46 -19 -12 -2 -35 -9 -50 -15
-18 -7 -28 -7 -28 -1 0 6 -7 10 -15 10 -18 0 -20 -29 -2 -31 6 -1 47 -1 90 0
46 1 77 -3 77 -9 0 -10 -8 -11 -92 -12 -78 0 -55 -16 30 -20 42 -2 78 -3 79
-2 2 0 5 404 4 471 l-1 22 -207 -2 c-115 -1 -667 -3 -1227 -5z m-1 -142 c3 -5
-3 -10 -14 -10 -12 0 -21 5 -21 10 0 6 6 10 14 10 8 0 18 -4 21 -10z m1014
-73 c10 -13 3 -67 -8 -67 -4 0 -5 -16 -3 -35 l4 -35 -73 1 c-48 1 -65 4 -49 8
23 6 25 12 26 62 0 30 1 59 2 65 3 15 89 15 101 1z"/>
<path d="M1830 4861 c0 -15 38 -33 63 -29 41 6 26 33 -20 36 -25 2 -43 -1 -43
-7z m80 -11 c0 -13 -30 -13 -50 0 -11 7 -7 10 18 10 17 0 32 -4 32 -10z"/>
<path d="M1363 4843 c9 -2 25 -2 35 0 9 3 1 5 -18 5 -19 0 -27 -2 -17 -5z"/>
<path d="M2445 4802 c-46 -9 -36 -22 17 -22 33 0 60 5 66 13 9 10 3 13 -26 13
-20 0 -46 -2 -57 -4z"/>
<path d="M2378 4783 c7 -3 16 -2 19 1 4 3 -2 6 -13 5 -11 0 -14 -3 -6 -6z"/>
<path d="M6919 4779 c-6 -4 1 -6 15 -6 15 0 28 2 30 6 3 4 -4 7 -15 7 -11 0
-25 -3 -30 -7z"/>
<path d="M3067 4645 c6 -136 11 -155 13 -50 l3 80 12 -60 c9 -43 14 -55 20
-42 4 9 4 30 0 45 -4 15 -7 46 -7 70 -1 34 -4 42 -18 42 -10 0 -20 6 -23 13
-2 6 -2 -37 0 -98z"/>
<path d="M956 4674 c-8 -62 -8 -144 1 -185 l8 -34 5 37 5 37 207 4 207 4 11
-31 c5 -17 14 -65 20 -106 5 -41 15 -102 21 -136 17 -87 9 -109 -48 -128 -25
-9 -59 -16 -74 -16 -31 0 -50 -24 -48 -62 1 -16 3 -18 6 -6 3 10 16 18 36 20
18 2 31 8 30 15 -2 8 8 10 31 6 18 -3 43 0 55 7 22 11 22 10 19 -21 -4 -41 11
-46 46 -14 15 14 32 23 37 20 5 -4 9 1 9 10 0 9 -4 14 -9 10 -10 -6 -26 13
-18 21 2 3 31 -4 63 -16 74 -26 227 -28 298 -4 26 9 45 18 43 20 -4 4 -234 34
-260 34 -5 0 -5 -4 -2 -10 3 -5 -3 -10 -14 -10 -12 0 -21 5 -21 10 0 6 6 10
13 10 8 0 7 4 -3 10 -22 14 -59 12 -76 -5 -24 -23 -53 -18 -64 11 -8 19 -6 29
6 41 8 9 13 24 11 35 -3 10 -1 16 3 13 5 -3 11 -1 15 5 11 17 134 82 145 75 5
-3 10 -2 10 2 0 5 8 9 18 10 27 2 115 36 131 51 10 10 29 12 69 7 48 -6 56 -4
69 14 14 20 63 30 63 12 0 -5 9 -11 20 -14 11 -3 20 -14 20 -25 0 -12 11 -24
29 -31 16 -7 55 -35 87 -62 32 -27 59 -47 61 -46 1 2 -1 17 -6 34 -5 17 -6 35
-2 42 4 6 18 -23 31 -64 27 -88 40 -102 40 -48 0 23 10 54 25 78 14 22 31 55
40 73 l15 32 85 0 c81 0 85 1 87 23 5 82 6 150 1 200 l-5 57 -59 0 c-65 0 -81
-17 -21 -23 20 -2 -1 -4 -48 -5 -47 0 -79 2 -72 5 10 4 9 8 -5 19 -16 12 -16
13 -1 14 9 0 19 4 22 9 3 5 -102 9 -236 10 l-241 2 6 -30 7 -31 -130 0 c-110
0 -130 2 -130 15 0 9 -8 19 -17 22 -15 6 -15 7 3 14 10 4 -137 8 -327 8 l-346
1 -7 -46z m1203 -290 c17 -14 31 -30 31 -36 0 -11 -79 43 -80 55 0 14 19 7 49
-19z m-668 -157 c-10 -9 -11 -8 -5 6 3 10 9 15 12 12 3 -3 0 -11 -7 -18z m119
-67 c0 -5 -9 -10 -20 -10 -11 0 -20 5 -20 10 0 6 9 10 20 10 11 0 20 -4 20
-10z"/>
<path d="M2398 4673 c6 -2 18 -2 25 0 6 3 1 5 -13 5 -14 0 -19 -2 -12 -5z"/>
<path d="M3957 4663 c-4 -3 -7 -11 -7 -17 0 -7 3 -7 8 0 4 7 16 14 27 17 19 5
19 5 -1 6 -11 0 -24 -2 -27 -6z"/>
<path d="M4040 4660 c0 -5 18 -10 39 -10 22 0 43 5 46 10 4 6 -12 10 -39 10
-25 0 -46 -4 -46 -10z"/>
<path d="M4270 4667 c0 -1 -4 -18 -10 -36 -5 -19 -6 -30 -1 -25 10 11 24 64
16 64 -3 0 -5 -1 -5 -3z"/>
<path d="M3730 4586 c0 -2 7 -9 15 -16 9 -7 15 -8 15 -2 0 5 -7 12 -15 16 -8
3 -15 4 -15 2z"/>
<path d="M4258 4583 c7 -3 16 -2 19 1 4 3 -2 6 -13 5 -11 0 -14 -3 -6 -6z"/>
<path d="M4145 4560 c3 -5 8 -10 11 -10 2 0 4 5 4 10 0 6 -5 10 -11 10 -5 0
-7 -4 -4 -10z"/>
<path d="M3132 4435 l1 -110 7 95 c4 52 3 102 -1 110 -5 8 -8 -34 -7 -95z"/>
<path d="M3486 4532 c-11 -18 12 -33 45 -30 l34 3 -34 18 c-39 20 -38 19 -45
9z"/>
<path d="M3614 4528 c-3 -4 6 -8 20 -8 14 0 26 4 26 8 0 4 -9 8 -21 8 -11 0
-23 -4 -25 -8z"/>
<path d="M4940 4489 c0 -17 -4 -28 -10 -24 -5 3 -10 1 -10 -4 0 -6 4 -11 10
-11 5 0 11 -28 13 -62 2 -48 4 -39 5 35 1 53 0 97 -3 97 -3 0 -5 -14 -5 -31z"/>
<path d="M3072 4490 c0 -14 2 -19 5 -12 2 6 2 18 0 25 -3 6 -5 1 -5 -13z"/>
<path d="M4136 4483 c-4 -9 7 -13 40 -13 52 0 51 16 -1 22 -22 2 -36 -1 -39
-9z"/>
<path d="M3958 4463 c7 -3 16 -2 19 1 4 3 -2 6 -13 5 -11 0 -14 -3 -6 -6z"/>
<path d="M5020 4430 c0 -5 10 -10 23 -10 18 0 19 2 7 10 -19 13 -30 13 -30 0z"/>
<path d="M5075 4420 c-3 -5 -2 -10 4 -10 5 0 13 5 16 10 3 6 2 10 -4 10 -5 0
-13 -4 -16 -10z"/>
<path d="M1083 4393 c-41 -4 -58 -23 -33 -38 6 -3 10 -20 10 -37 l0 -30 35 31
c21 18 61 38 97 48 91 26 35 39 -109 26z"/>
<path d="M5230 4350 l0 -30 130 -2 c72 -1 138 -2 147 -2 12 -1 19 10 24 32 l6
32 -153 0 -154 0 0 -30z"/>
<path d="M1183 4329 c-6 -6 -9 -18 -6 -25 9 -23 21 -16 19 11 0 14 -1 25 -1
25 -1 0 -6 -5 -12 -11z"/>
<path d="M1222 4315 c0 -16 2 -22 5 -12 2 9 2 23 0 30 -3 6 -5 -1 -5 -18z"/>
<path d="M4850 4330 c0 -13 20 -13 40 0 12 8 9 10 -12 10 -16 0 -28 -4 -28
-10z"/>
<path d="M3252 4315 c-21 -11 -21 -13 -5 -17 25 -7 43 1 43 18 0 17 -7 16 -38
-1z"/>
<path d="M4940 4315 c-1 -5 -2 -58 -3 -117 l-2 -108 130 2 130 2 -117 3 -118
4 -1 82 c-1 73 -13 159 -19 132z"/>
<path d="M2348 4293 c-16 -4 -23 -25 -30 -93 -2 -14 -7 -23 -11 -20 -9 5 -41
-46 -42 -65 0 -5 -13 -16 -30 -24 -23 -12 -26 -16 -12 -19 27 -6 20 -22 -10
-23 -19 -1 -22 -3 -10 -6 11 -3 34 -2 52 1 30 6 33 10 41 59 8 51 8 51 12 15
4 -46 20 -50 21 -5 1 100 4 148 12 153 5 3 9 -2 9 -10 0 -9 5 -16 10 -16 6 0
10 14 10 30 0 17 -1 29 -2 29 -2 -1 -11 -3 -20 -6z"/>
<path d="M2095 4275 c11 -9 29 -21 40 -26 l20 -10 -20 16 c-11 9 -29 21 -40
26 l-20 10 20 -16z"/>
<path d="M4503 4268 c-18 -21 -53 -80 -53 -91 0 -3 9 -7 19 -10 17 -4 18 -2 9
13 -9 14 -5 26 21 64 35 50 36 59 4 24z"/>
<path d="M5533 4230 c0 -25 2 -35 4 -22 2 12 2 32 0 45 -2 12 -4 2 -4 -23z"/>
<path d="M1906 4222 c-3 -5 1 -9 9 -9 8 0 12 4 9 9 -3 4 -7 8 -9 8 -2 0 -6 -4
-9 -8z"/>
<path d="M3190 4219 c0 -5 5 -7 10 -4 6 3 10 8 10 11 0 2 -4 4 -10 4 -5 0 -10
-5 -10 -11z"/>
<path d="M3930 4226 c0 -9 40 -13 46 -5 3 5 -6 9 -20 9 -14 0 -26 -2 -26 -4z"/>
<path d="M1776 4209 c2 -4 19 -9 38 -11 19 -2 33 -1 30 3 -2 4 -19 9 -38 11
-19 2 -33 1 -30 -3z"/>
<path d="M3121 4184 c0 -11 3 -14 6 -6 3 7 2 16 -1 19 -3 4 -6 -2 -5 -13z"/>
<path d="M5530 4144 c0 -9 -10 -25 -22 -35 l-21 -19 26 0 c24 0 27 4 27 35 0
19 -2 35 -5 35 -3 0 -5 -7 -5 -16z"/>
<path d="M5207 4106 c-5 -12 0 -16 21 -15 16 0 21 3 12 6 -8 3 -18 10 -21 15
-3 5 -9 3 -12 -6z"/>
<path d="M5416 4102 c-3 -5 1 -9 9 -9 8 0 12 4 9 9 -3 4 -7 8 -9 8 -2 0 -6 -4
-9 -8z"/>
<path d="M6036 4097 c3 -10 9 -15 12 -12 3 3 0 11 -7 18 -10 9 -11 8 -5 -6z"/>
<path d="M2569 4063 c-1 -10 -2 -22 -4 -28 -1 -5 -3 -15 -3 -21 -1 -5 -11 -20
-21 -31 -11 -11 -21 -33 -23 -49 l-3 -29 -114 -3 c-69 -2 -118 1 -125 8 -7 7
-5 10 6 10 10 0 17 11 20 30 l5 30 -102 0 -102 0 -14 -36 -14 -36 -457 -2
-458 -2 0 28 c0 26 -3 28 -39 28 -37 0 -40 -2 -43 -32 -3 -33 -4 -33 -59 -36
-54 -3 -57 -4 -63 -34 -3 -17 -6 -86 -6 -153 l0 -123 61 2 c34 1 67 -3 75 -9
9 -6 16 -39 20 -90 l6 -80 -32 -12 c-18 -7 -37 -10 -41 -7 -5 3 -9 0 -9 -5 0
-14 226 -14 255 0 16 7 14 9 -12 6 -22 -2 -41 4 -60 18 -23 19 -27 31 -31 86
-6 89 8 101 103 89 39 -5 113 -9 166 -10 83 0 98 -3 104 -17 5 -15 4 -16 -6
-5 -7 6 -15 12 -19 12 -3 0 -4 -36 -2 -80 2 -54 7 -79 15 -77 7 1 13 -10 15
-25 3 -22 8 -28 25 -27 18 1 19 2 4 6 -11 3 -16 10 -13 20 3 8 6 62 6 119 l0
104 169 0 c145 0 170 -2 175 -16 3 -9 6 -63 6 -120 0 -86 3 -104 15 -104 12 0
15 16 15 84 0 118 -2 116 86 116 43 0 74 -4 74 -10 0 -5 18 -10 39 -10 22 0
43 -4 46 -10 3 -5 -2 -10 -12 -10 -11 0 -14 -3 -7 -8 11 -7 11 -118 0 -129 -9
-9 -56 7 -56 18 0 6 6 9 14 6 12 -5 14 6 12 53 -1 33 -4 62 -8 65 -3 4 -5 -2
-4 -12 0 -10 -5 -17 -11 -15 -9 1 -13 -16 -13 -63 0 -45 4 -65 13 -66 6 -1 40
-3 74 -4 l62 -3 6 62 c4 33 5 79 3 101 l-3 40 -42 -3 c-23 -1 -44 2 -48 8 -3
5 1 10 9 10 9 0 16 7 16 15 0 8 4 15 10 15 5 0 7 -7 4 -15 -7 -18 12 -20 20
-2 3 9 9 7 19 -5 8 -10 21 -18 30 -18 9 0 19 -5 23 -12 5 -7 3 -8 -5 -4 -9 6
-12 -1 -9 -25 3 -36 33 -53 48 -28 6 9 12 9 24 -4 11 -11 16 -35 17 -79 1 -83
8 -63 11 32 2 57 6 74 17 72 7 -1 33 -3 57 -4 l44 -1 0 -44 c0 -27 -4 -42 -10
-38 -5 3 -10 16 -10 29 0 32 -9 37 -29 18 -17 -17 -17 -62 1 -62 5 0 6 -9 3
-20 -3 -11 -3 -21 2 -21 4 -1 18 -3 29 -4 12 -1 26 -5 32 -9 6 -3 13 0 15 6 3
7 6 3 6 -8 1 -12 -6 -38 -14 -57 -8 -20 -15 -48 -15 -62 l0 -26 -672 3 -673 3
1 55 c1 40 -1 49 -7 33 -5 -14 -17 -23 -30 -23 -19 0 -21 -4 -15 -35 l7 -35
-89 0 -89 0 -6 -41 c-3 -22 -3 -132 0 -242 5 -161 9 -204 21 -213 12 -9 12
-12 -2 -26 -11 -11 -16 -34 -16 -72 l0 -56 358 3 357 2 -2 44 c-1 24 -6 48
-10 52 -10 10 -10 -42 0 -58 5 -8 4 -13 -2 -13 -6 0 -16 18 -22 40 -8 26 -17
39 -25 36 -7 -3 -18 2 -24 10 -7 8 -16 14 -21 14 -12 0 -11 -47 1 -70 7 -13 6
-19 -5 -24 -12 -4 -14 17 -14 129 0 74 3 136 8 139 4 3 67 8 139 12 120 6 132
5 126 -10 -3 -9 -10 -16 -16 -16 -5 0 -6 5 -3 10 7 11 -100 9 -111 -2 -7 -8
94 -22 164 -22 l53 -1 3 -58 c2 -47 0 -60 -15 -68 -15 -8 -18 -21 -16 -80 l2
-70 50 3 c43 3 50 6 55 28 5 22 13 26 60 31 30 4 73 14 95 22 28 11 88 17 200
21 121 3 168 9 193 21 l32 16 0 527 c0 290 1 598 3 685 1 86 1 157 0 157 -2 0
-4 -8 -4 -17z m-119 -349 c0 -16 -130 -18 -181 -4 -22 7 -37 6 -46 -1 -10 -9
-13 -8 -13 2 0 11 -2 11 -10 -1 -9 -13 -11 -13 -20 0 -6 10 -10 11 -10 3 0
-16 -76 -18 -85 -2 -13 20 6 24 123 26 64 1 111 -1 105 -4 -7 -2 -13 -9 -13
-14 0 -10 29 -7 48 5 7 4 16 6 18 3 3 -3 17 1 32 9 28 14 52 4 52 -22z m-375
-5 c11 -17 -1 -21 -15 -4 -8 9 -8 15 -2 15 6 0 14 -5 17 -11z m-758 -35 c-3
-3 -12 -4 -19 -1 -8 3 -5 6 6 6 11 1 17 -2 13 -5z m947 -20 c9 -33 9 -33 -37
-36 -22 -1 -37 -7 -37 -15 0 -17 -20 -17 -21 0 0 10 -2 10 -6 0 -2 -7 -12 -13
-21 -13 -14 0 -15 -2 -2 -9 8 -6 18 -7 22 -5 4 3 8 0 8 -5 0 -6 -11 -11 -25
-11 -16 0 -25 6 -25 15 0 15 -32 16 -46 2 -11 -10 -84 -9 -84 2 0 21 32 32 87
30 74 -2 83 0 55 12 -13 5 -21 13 -17 18 3 5 1 12 -5 16 -24 15 6 25 75 25 70
0 73 -1 79 -26z m-834 0 c0 -8 -5 -12 -10 -9 -6 4 -8 11 -5 16 9 14 15 11 15
-7z m992 -3 c12 -10 -3 -51 -18 -51 -8 0 -14 -4 -14 -10 0 -5 5 -10 10 -10 6
0 10 -7 10 -15 0 -8 -4 -15 -10 -15 -5 0 -10 4 -10 9 0 4 -10 6 -23 4 -34 -7
-49 17 -41 66 l7 41 41 -6 c22 -4 44 -9 48 -13z m-187 -141 c-3 -5 1 -10 9
-10 9 0 16 -7 16 -15 0 -17 -16 -20 -25 -5 -4 6 -10 8 -15 5 -4 -3 -6 4 -3 15
3 11 10 20 15 20 5 0 6 -4 3 -10z m22 -74 c8 -7 -7 -26 -20 -26 -7 0 -18 9
-25 20 -11 19 -10 20 14 16 15 -3 29 -7 31 -10z m300 -248 c-3 -8 -6 -5 -6 6
-1 11 2 17 5 13 3 -3 4 -12 1 -19z m-1429 -125 c-21 -2 -55 -2 -75 0 -21 2 -4
4 37 4 41 0 58 -2 38 -4z m193 -167 c5 3 9 0 9 -6 0 -6 -6 -10 -12 -8 -7 1
-24 -2 -37 -6 -16 -6 -28 -3 -39 8 -15 15 -14 16 14 10 21 -4 34 -2 40 7 6 10
9 10 12 1 2 -7 8 -10 13 -6z m105 4 c6 -6 21 -6 42 -1 39 11 41 7 7 -15 -21
-14 -30 -14 -55 -4 -31 13 -40 30 -17 30 7 0 17 -4 23 -10z m-261 -20 c0 -10
-12 -16 -40 -18 -30 -2 -36 0 -25 8 8 5 11 10 7 10 -5 0 -5 5 -2 11 10 15 60
7 60 -11z m145 -40 c0 -5 -9 -10 -19 -10 -11 0 -23 5 -26 10 -4 6 5 10 19 10
14 0 26 -4 26 -10z m116 -44 c-7 -29 -38 -42 -63 -26 -17 11 -17 11 0 6 23 -7
59 32 51 54 -4 12 -2 12 7 3 6 -6 9 -22 5 -37z m640 13 c23 -26 8 -55 -27 -51
-36 4 -44 18 -25 46 20 31 27 32 52 5z m154 -5 c15 -40 12 -45 -22 -42 -36 3
-49 28 -28 53 19 23 39 18 50 -11z m147 20 c-4 -4 2 -19 13 -34 17 -24 18 -29
6 -40 -20 -15 -80 -8 -84 11 -4 20 35 69 55 69 9 0 13 -3 10 -6z m-1307 -43
c0 -11 -4 -23 -10 -26 -6 -4 -10 5 -10 19 0 14 5 26 10 26 6 0 10 -9 10 -19z
m180 -21 c0 -5 -5 -10 -11 -10 -5 0 -7 5 -4 10 3 6 8 10 11 10 2 0 4 -4 4 -10z
m983 -35 c-3 -9 -8 -14 -10 -11 -3 3 -2 9 2 15 9 16 15 13 8 -4z m-752 -12
c16 -10 29 -20 29 -23 -1 -22 -54 -55 -76 -46 -22 9 -17 28 6 21 14 -4 20 -2
20 9 0 9 -6 13 -14 10 -17 -7 -30 12 -22 31 7 19 21 19 57 -2z m556 11 c-3 -3
-12 -4 -19 -1 -8 3 -5 6 6 6 11 1 17 -2 13 -5z m33 -4 c0 -5 -2 -10 -4 -10 -3
0 -8 5 -11 10 -3 6 -1 10 4 10 6 0 11 -4 11 -10z m300 0 c8 -5 11 -10 5 -10
-5 0 -17 5 -25 10 -8 5 -10 10 -5 10 6 0 17 -5 25 -10z m-1145 -21 c0 -8 -6
-13 -12 -11 -7 1 -13 -3 -13 -10 0 -9 -3 -9 -12 0 -8 8 -8 15 2 27 15 18 35
15 35 -6z m138 -5 c-6 -17 -23 -9 -23 11 0 8 6 12 14 9 8 -3 12 -12 9 -20z
m-248 6 c-3 -5 -15 -10 -25 -10 -10 0 -22 5 -25 10 -4 6 7 10 25 10 18 0 29
-4 25 -10z m47 -2 c9 -23 -3 -38 -28 -38 -29 0 -32 16 -4 25 11 4 18 11 15 16
-4 5 -2 9 3 9 6 0 12 -6 14 -12z m755 -20 c-3 -7 -5 -2 -5 12 0 14 2 19 5 13
2 -7 2 -19 0 -25z m-577 3 c12 -24 6 -42 -20 -59 -20 -12 -26 -6 -21 21 1 5
-3 6 -9 2 -5 -3 -15 -3 -21 1 -7 4 -1 13 15 23 14 10 23 21 19 24 -3 4 1 7 10
7 9 0 21 -9 27 -19z m-163 -43 c-3 -8 -6 -5 -6 6 -1 11 2 17 5 13 3 -3 4 -12
1 -19z m740 -15 c-3 -10 -5 -4 -5 12 0 17 2 24 5 18 2 -7 2 -21 0 -30z"/>
<path d="M2130 3650 c0 -5 5 -10 10 -10 6 0 10 5 10 10 0 6 -4 10 -10 10 -5 0
-10 -4 -10 -10z"/>
<path d="M2345 3600 c-18 -8 -17 -9 8 -9 16 -1 26 3 22 9 -3 6 -7 10 -8 9 -1
0 -11 -4 -22 -9z"/>
<path d="M1235 4060 c-3 -5 1 -10 9 -10 9 0 16 5 16 10 0 6 -4 10 -9 10 -6 0
-13 -4 -16 -10z"/>
<path d="M1735 4050 c-4 -6 5 -10 19 -10 14 0 26 5 26 10 0 6 -9 10 -19 10
-11 0 -23 -4 -26 -10z"/>
<path d="M6066 4031 c-4 -7 -5 -15 -2 -18 9 -9 19 4 14 18 -4 11 -6 11 -12 0z"/>
<path d="M6295 4013 c-77 -2 -143 -7 -147 -11 -4 -4 153 -6 349 -4 196 1 354
4 352 6 -6 6 -401 12 -554 9z"/>
<path d="M1410 3955 l0 -25 133 0 c72 0 196 -3 275 -7 l142 -6 0 31 0 32 -275
0 -275 0 0 -25z"/>
<path d="M1484 3539 c-3 -6 3 -21 15 -32 17 -18 21 -19 21 -5 0 39 -21 61 -36
37z"/>
<path d="M1592 3500 c0 -14 2 -19 5 -12 2 6 2 18 0 25 -3 6 -5 1 -5 -13z"/>
<path d="M1680 3485 c0 -27 6 -30 29 -16 7 5 11 13 7 19 -4 7 8 12 31 15 32 3
29 4 -14 5 -50 2 -53 1 -53 -23z"/>
<path d="M961 3454 c0 -11 3 -14 6 -6 3 7 2 16 -1 19 -3 4 -6 -2 -5 -13z"/>
<path d="M1060 3424 c-17 -9 -20 -14 -9 -14 9 0 22 7 29 15 15 18 13 18 -20
-1z"/>
<path d="M2310 3429 c0 -5 5 -7 10 -4 6 3 10 8 10 11 0 2 -4 4 -10 4 -5 0 -10
-5 -10 -11z"/>
<path d="M1008 3413 c7 -3 16 -2 19 1 4 3 -2 6 -13 5 -11 0 -14 -3 -6 -6z"/>
<path d="M980 3380 c8 -5 20 -10 25 -10 6 0 3 5 -5 10 -8 5 -19 10 -25 10 -5
0 -3 -5 5 -10z"/>
<path d="M1688 3383 c6 -2 18 -2 25 0 6 3 1 5 -13 5 -14 0 -19 -2 -12 -5z"/>
<path d="M1653 2854 c3 -11 10 -40 17 -66 9 -36 17 -48 31 -48 14 0 19 7 19
28 0 32 -9 46 -33 55 -10 4 -17 14 -15 23 2 9 -3 19 -11 22 -9 3 -12 -2 -8
-14z"/>
<path d="M6365 2640 c-3 -5 -1 -10 4 -10 6 0 11 5 11 10 0 6 -2 10 -4 10 -3 0
-8 -4 -11 -10z"/>
<path d="M6843 2523 c9 -2 23 -2 30 0 6 3 -1 5 -18 5 -16 0 -22 -2 -12 -5z"/>
<path d="M3593 2496 c-35 -17 -27 -26 23 -26 38 0 45 3 40 16 -3 9 -6 18 -6
20 0 7 -35 2 -57 -10z"/>
<path d="M957 2429 c-3 -11 0 -22 6 -24 7 -2 240 -5 520 -7 l507 -4 0 28 0 28
-514 0 c-510 0 -514 0 -519 -21z"/>
<path d="M3006 2374 c-3 -9 -2 -23 4 -32 7 -14 9 -10 10 16 0 35 -5 41 -14 16z"/>
<path d="M2104 2348 c2 -18 8 -34 13 -35 13 -5 13 30 -1 39 -7 5 -4 8 7 8 10
0 15 5 12 10 -3 6 -13 10 -21 10 -10 0 -13 -9 -10 -32z"/>
<path d="M2581 2364 c0 -11 3 -14 6 -6 3 7 2 16 -1 19 -3 4 -6 -2 -5 -13z"/>
<path d="M2607 2373 c-4 -3 -7 -13 -7 -22 1 -13 3 -13 11 2 11 19 8 33 -4 20z"/>
<path d="M2677 2360 c3 -11 7 -20 9 -20 2 0 4 9 4 20 0 11 -4 20 -9 20 -5 0
-7 -9 -4 -20z"/>
<path d="M2202 2345 c0 -16 2 -22 5 -12 2 9 2 23 0 30 -3 6 -5 -1 -5 -18z"/>
<path d="M2221 2343 c1 -25 2 -25 7 -7 6 18 14 21 50 20 23 0 42 2 42 7 0 4
-22 7 -50 7 -48 0 -50 -1 -49 -27z"/>
<path d="M1383 2352 l-421 -2 -7 -51 c-4 -29 -4 -145 0 -260 l7 -208 247 5
c135 2 364 5 507 4 l262 0 7 209 c4 114 4 232 0 260 l-7 52 -86 -3 c-48 -2
-277 -4 -509 -6z"/>
<path d="M2074 2346 c-5 -14 -9 -15 -15 -4 -6 9 -9 7 -9 -9 0 -29 26 -30 35
-2 8 25 -2 39 -11 15z"/>
<path d="M2725 2350 c3 -5 8 -10 11 -10 2 0 4 5 4 10 0 6 -5 10 -11 10 -5 0
-7 -4 -4 -10z"/>
<path d="M2251 2336 c-16 -19 -11 -29 8 -17 7 5 12 14 9 21 -3 9 -8 7 -17 -4z"/>
<path d="M2280 2334 c0 -8 5 -12 10 -9 6 4 8 11 5 16 -9 14 -15 11 -15 -7z"/>
<path d="M2153 2145 c-45 -19 -41 -25 7 -13 22 6 40 14 40 19 0 12 -9 11 -47
-6z"/>
<path d="M2195 2115 c-5 -2 -22 -6 -37 -9 -20 -5 -25 -10 -21 -26 6 -22 23
-28 23 -7 0 9 3 8 9 -2 12 -18 31 -5 32 22 1 17 2 18 6 5 5 -20 19 -23 29 -7
3 6 0 15 -7 20 -15 9 -18 10 -34 4z"/>
<path d="M2600 2101 c-14 -27 -13 -36 4 -22 10 9 20 9 33 3 13 -7 24 -6 37 4
24 17 18 24 -28 30 -27 3 -38 0 -46 -15z"/>
<path d="M2090 2090 c-6 -12 -10 -33 -8 -48 3 -24 8 -27 47 -30 24 -2 49 2 54
7 6 6 19 11 28 11 14 0 29 18 29 36 0 2 -16 -8 -36 -21 -24 -16 -51 -25 -76
-25 -37 0 -38 1 -32 28 9 35 14 41 14 14 0 -13 6 -22 16 -22 11 0 14 6 8 23
-3 12 -11 24 -15 25 -5 2 -7 8 -3 13 3 5 1 9 -5 9 -6 0 -15 -9 -21 -20z"/>
<path d="M2700 2081 c0 -26 -25 -44 -73 -52 l-42 -6 45 -2 c25 0 51 3 58 7 16
11 34 72 21 72 -5 0 -9 -8 -9 -19z"/>
<path d="M2891 1974 c0 -11 3 -14 6 -6 3 7 2 16 -1 19 -3 4 -6 -2 -5 -13z"/>
<path d="M3077 1893 c-4 -3 -7 -11 -7 -17 0 -6 5 -5 12 2 6 6 9 14 7 17 -3 3
-9 2 -12 -2z"/>
<path d="M2363 1833 c9 -2 23 -2 30 0 6 3 -1 5 -18 5 -16 0 -22 -2 -12 -5z"/>
<path d="M2768 1833 c6 -2 18 -2 25 0 6 3 1 5 -13 5 -14 0 -19 -2 -12 -5z"/>
<path d="M4652 1808 c-62 -32 -153 -117 -180 -169 -13 -24 -18 -37 -10 -29 7
8 21 21 31 29 16 13 17 12 7 -13 -6 -18 -6 -25 0 -21 6 3 10 11 10 16 0 6 12
26 26 44 14 19 23 39 20 44 -4 5 -1 13 5 17 8 5 9 3 4 -7 -5 -8 -5 -11 -1 -7
4 3 8 10 8 15 1 7 66 58 115 90 30 19 11 14 -35 -9z"/>
<path d="M2883 1750 c0 -25 2 -35 4 -22 2 12 2 32 0 45 -2 12 -4 2 -4 -23z"/>
<path d="M2303 1754 c-3 -8 -1 -20 6 -27 14 -14 15 -30 1 -22 -5 3 -10 1 -10
-5 0 -26 35 -3 41 28 7 35 -3 42 -21 15 -9 -16 -10 -15 -5 5 7 25 -2 30 -12 6z"/>
<path d="M2357 1753 c-4 -3 -7 -18 -6 -32 0 -26 0 -26 9 -3 15 36 33 27 27
-13 -3 -19 -2 -35 4 -35 5 0 9 13 9 29 0 38 20 52 21 14 0 -28 0 -28 10 -4 6
16 6 28 -2 37 -12 14 -61 19 -72 7z"/>
<path d="M2457 1733 c-13 -12 -7 -33 8 -33 8 0 15 9 15 20 0 20 -11 26 -23 13z"/>
<path d="M2497 1734 c-4 -4 -7 -13 -7 -21 0 -15 41 -13 53 2 4 6 11 4 17 -5 8
-12 10 -11 10 7 0 20 -3 21 -24 13 -14 -5 -27 -5 -33 1 -5 5 -12 6 -16 3z"/>
<path d="M2592 1717 c6 -17 48 -22 48 -5 0 8 -12 15 -26 16 -17 1 -24 -2 -22
-11z"/>
<path d="M2657 1723 c-12 -11 -8 -23 8 -23 8 0 15 7 15 15 0 16 -12 20 -23 8z"/>
<path d="M2690 1713 c0 -8 5 -13 12 -11 18 6 21 25 3 25 -8 0 -15 -7 -15 -14z"/>
<path d="M2730 1711 c0 -14 7 -19 25 -17 28 1 34 21 9 30 -26 10 -34 7 -34
-13z"/>
<path d="M2463 1673 c9 -2 23 -2 30 0 6 3 -1 5 -18 5 -16 0 -22 -2 -12 -5z"/>
<path d="M2518 1673 c6 -2 18 -2 25 0 6 3 1 5 -13 5 -14 0 -19 -2 -12 -5z"/>
<path d="M4470 1575 c-7 -9 -8 -15 -2 -15 5 0 12 7 16 15 3 8 4 15 2 15 -2 0
-9 -7 -16 -15z"/>
<path d="M2881 1408 c0 -10 -5 -18 -11 -18 -5 0 -10 -7 -10 -15 0 -8 3 -15 8
-15 14 1 42 28 42 41 0 12 -2 12 -9 0 -7 -11 -10 -10 -14 5 -4 16 -5 17 -6 2z"/>
<path d="M2268 933 c7 -3 16 -2 19 1 4 3 -2 6 -13 5 -11 0 -14 -3 -6 -6z"/>
<path d="M5427 683 c-4 -3 -7 -42 -7 -85 l0 -78 59 0 c69 0 71 3 71 95 l0 62
-37 7 c-49 8 -78 8 -86 -1z"/>
<path d="M5610 600 l0 -80 210 0 210 0 0 80 0 80 -210 0 -210 0 0 -80z"/>
<path d="M5420 270 c0 -5 22 -10 49 -10 28 0 53 5 56 10 4 6 -15 10 -49 10
-31 0 -56 -4 -56 -10z"/>
<path d="M5635 270 c26 -11 307 -11 360 -1 26 6 -33 9 -170 9 -126 0 -202 -3
-190 -8z"/>
<path d="M5420 100 l0 -100 55 0 55 0 0 100 0 100 -55 0 -55 0 0 -100z"/>
<path d="M5630 138 c0 -35 3 -80 6 -101 l7 -37 182 0 c211 0 191 -12 202 123
l6 77 -202 0 -201 0 0 -62z"/>
</g>
</svg>
